<?xml version="1.0" ?><svg id="Layer_1" style="enable-background:new 0 0 256 256;" version="1.1" viewBox="0 0 256 256" xml:space="preserve" xmlns="http://www.w3.org/2000/svg" xmlns:xlink="http://www.w3.org/1999/xlink"><g><path d="M244.6,134.9c-2.7-0.2-5.1,1.7-5.4,4.4c-5.8,57.2-53.6,100.4-111.2,100.4c-61.6,0-111.8-50.1-111.8-111.8   c0-57.6,43.2-105.4,100.4-111.2c2.7-0.3,4.7-2.7,4.4-5.4c-0.3-2.7-2.7-4.7-5.4-4.4C53.4,13.3,6.4,65.3,6.4,128   C6.4,195,61,249.6,128,249.6c62.7,0,114.7-47,121-109.2C249.3,137.6,247.3,135.2,244.6,134.9z"/><path d="M249,115.6C243.2,58.4,197.6,12.8,140.4,7L135,6.4V121h114.6L249,115.6z M144.8,111.2V17.5c48.2,7.3,86.4,45.5,93.7,93.7   H144.8z"/><path d="M105.7,48.2c1.9-1.9,2-5,0.1-7c-1.9-1.9-5-2-7-0.1L41.8,97c-1.9,1.9-2,5-0.1,7c1,1,2.2,1.5,3.5,1.5c1.2,0,2.5-0.5,3.4-1.4   L105.7,48.2z"/><path d="M50.5,172.6c1.2,0,2.5-0.5,3.4-1.4l59.9-58.7c1.9-1.9,2-5,0.1-7c-1.9-1.9-5-2-7-0.1l-59.9,58.7c-1.9,1.9-2,5-0.1,7   C47.9,172.1,49.2,172.6,50.5,172.6z"/><path d="M86.6,209.5c1.2,0,2.5-0.5,3.4-1.4l60.3-59c1.9-1.9,2-5,0.1-7c-1.9-1.9-5-2-7-0.1l-60.3,59c-1.9,1.9-2,5-0.1,7   C84.1,209,85.3,209.5,86.6,209.5z"/><path d="M153.6,216.3c1.2,0,2.5-0.5,3.4-1.4l57.2-56c1.9-1.9,2-5,0.1-7c-1.9-1.9-5-2-7-0.1l-57.2,56c-1.9,1.9-2,5-0.1,7   C151.1,215.8,152.3,216.3,153.6,216.3z"/></g></svg>