<?xml version="1.0" encoding="iso-8859-1"?>
<!-- Generator: Adobe Illustrator 18.1.1, SVG Export Plug-In . SVG Version: 6.00 Build 0)  -->
<svg version="1.1" id="Capa_1" xmlns="http://www.w3.org/2000/svg" xmlns:xlink="http://www.w3.org/1999/xlink" x="0px" y="0px"
	 viewBox="0 0 581.176 581.176" style="enable-background:new 0 0 581.176 581.176;" xml:space="preserve">
<g>
	<g>
		<path d="M135.572,189.924l53.081-53.081l49.448,49.424c3.439,3.439,9.057,3.439,12.495,0L436.137,0.751l53.468,52.693
			L250.596,292.429c-3.439,3.439-9.057,3.439-12.495,0L135.572,189.924z"/>
	</g>
	<path d="M402.017,175.249c1.38,7.095,2.204,14.408,2.204,21.915c0,63.784-51.725,115.485-115.509,115.485
		c-7.628,0-15.062-0.823-22.278-2.252c-6.078,5.57-13.779,8.839-22.133,8.839c-8.863,0-17.145-3.439-23.368-9.662L118.451,207.044
		l-17.12-17.12l17.12-17.12l53.081-53.081l17.12-17.12l15.91,15.91c21.092-22.545,50.877-36.856,84.174-36.856
		c9.832,0,19.203,1.598,28.308,3.923l63.058-63.033C352.786,8.209,321.717,0,288.736,0C179.862,0,91.572,88.29,91.572,197.164
		c0,69.378,35.839,130.329,89.985,165.442l107.179,218.571l107.203-218.595c54.122-35.113,89.961-96.064,89.961-165.417
		c0-30.827-7.289-59.885-19.905-85.869L402.017,175.249z"/>
</g>
<g>
</g>
<g>
</g>
<g>
</g>
<g>
</g>
<g>
</g>
<g>
</g>
<g>
</g>
<g>
</g>
<g>
</g>
<g>
</g>
<g>
</g>
<g>
</g>
<g>
</g>
<g>
</g>
<g>
</g>
</svg>
