<?xml version="1.0" encoding="iso-8859-1"?>
<!-- Generator: Adobe Illustrator 16.0.0, SVG Export Plug-In . SVG Version: 6.00 Build 0)  -->
<!DOCTYPE svg PUBLIC "-//W3C//DTD SVG 1.1//EN" "http://www.w3.org/Graphics/SVG/1.1/DTD/svg11.dtd">
<svg version="1.1" id="Capa_1" xmlns="http://www.w3.org/2000/svg" xmlns:xlink="http://www.w3.org/1999/xlink" x="0px" y="0px"
	 width="612px" height="612px" viewBox="0 0 612 612" style="enable-background:new 0 0 612 612;" xml:space="preserve">
<g>
	<g>
		<path d="M334.688,248.625c-21.037,0-38.25-17.212-38.25-38.25V95.625h-191.25c-21.038,0-38.25,17.212-38.25,38.25V573.75
			c0,21.037,17.212,38.25,38.25,38.25h286.875c21.037,0,38.25-17.213,38.25-38.25v-57.375v-267.75H334.688z"/>
		<path d="M449.438,133.875h95.625L430.312,0v114.75C430.312,126.225,439.875,133.875,449.438,133.875z"/>
		<path d="M430.312,229.5L315.562,95.625v114.75c0,11.475,9.562,19.125,19.125,19.125H430.312z"/>
		<path d="M411.188,114.75V0h-191.25c-21.038,0-38.25,17.212-38.25,38.25V76.5h143.438l124.312,145.35v294.525h57.375
			c21.037,0,38.25-17.213,38.25-38.25V153h-95.625C428.4,153,411.188,135.788,411.188,114.75z"/>
	</g>
</g>
<g>
</g>
<g>
</g>
<g>
</g>
<g>
</g>
<g>
</g>
<g>
</g>
<g>
</g>
<g>
</g>
<g>
</g>
<g>
</g>
<g>
</g>
<g>
</g>
<g>
</g>
<g>
</g>
<g>
</g>
</svg>
