<?xml version="1.0" ?><!DOCTYPE svg  PUBLIC '-//W3C//DTD SVG 1.1//EN'  'http://www.w3.org/Graphics/SVG/1.1/DTD/svg11.dtd'><svg id="Capa_1" style="enable-background:new 0 0 430.1 430.1;" version="1.1" viewBox="0 0 430.1 430.1" xml:space="preserve" xmlns="http://www.w3.org/2000/svg" xmlns:xlink="http://www.w3.org/1999/xlink"><g><g><path d="M348.9,169.4L220.3,91.1l81.1-67.2l128.7,79.2L348.9,169.4z M300.5,317.5l123.5-72.3l-74.3-62.9     l-121,73.2L300.5,317.5z M201.3,255.5l-121-73.2L6.1,245.2l123.6,72.3L201.3,255.5z M86.4,307.2v23.3l123.5,75.8V262.4l-82,67.2     L86.4,307.2z M343.7,307.2l-41.5,22.4l-82-67.2v143.8l123.5-75.8V307.2z M209.9,91.1l-81.1-67.2L0,103.1l81.2,66.3L209.9,91.1z" id="Dropbox_1_"/></g></g></svg>