<?xml version="1.0" ?><!DOCTYPE svg  PUBLIC '-//W3C//DTD SVG 1.1//EN'  'http://www.w3.org/Graphics/SVG/1.1/DTD/svg11.dtd'><svg enable-background="new 0 0 30 30" height="30px" id="Layer_1" version="1.1" viewBox="0 0 30 30" width="30px" xml:space="preserve" xmlns="http://www.w3.org/2000/svg" xmlns:xlink="http://www.w3.org/1999/xlink"><g><path d="M22.642,17.318h7.279C29.978,16.814,30,16.299,30,15.771c0-2.475-0.664-4.795-1.822-6.793   c1.199-3.186,1.156-5.891-0.449-7.506c-1.527-1.52-5.621-1.273-10.252,0.777c-0.342-0.027-0.688-0.039-1.037-0.039   c-6.354,0-11.686,4.371-13.158,10.264c1.992-2.553,4.09-4.402,6.891-5.75c-0.254,0.238-1.74,1.717-1.99,1.967   C0.794,16.076-1.536,25.725,0.97,28.23c1.906,1.906,5.359,1.584,9.326-0.359c1.844,0.939,3.932,1.469,6.143,1.469   c5.957,0,11.004-3.832,12.832-9.172h-7.336c-1.01,1.861-2.982,3.129-5.248,3.129s-4.24-1.268-5.25-3.129   c-0.449-0.842-0.707-1.807-0.707-2.826v-0.023H22.642L22.642,17.318z M10.742,13.74c0.168-2.994,2.658-5.383,5.697-5.383   s5.529,2.389,5.697,5.383H10.742L10.742,13.74z M27.662,2.978c1.033,1.045,1.008,2.967,0.123,5.367   c-1.516-2.311-3.717-4.131-6.314-5.17C24.248,1.982,26.509,1.826,27.662,2.978z M2.882,27.756c-1.318-1.32-0.922-4.09,0.779-7.428   c1.057,2.969,3.119,5.461,5.777,7.066C6.496,28.73,4.087,28.959,2.882,27.756z"/></g></svg>