<?xml version="1.0" encoding="iso-8859-1"?>
<!-- Generator: Adobe Illustrator 16.0.0, SVG Export Plug-In . SVG Version: 6.00 Build 0)  -->
<!DOCTYPE svg PUBLIC "-//W3C//DTD SVG 1.1//EN" "http://www.w3.org/Graphics/SVG/1.1/DTD/svg11.dtd">
<svg version="1.1" id="Capa_1" xmlns="http://www.w3.org/2000/svg" xmlns:xlink="http://www.w3.org/1999/xlink" x="0px" y="0px"
	 width="554.625px" height="554.625px" viewBox="0 0 554.625 554.625" style="enable-background:new 0 0 554.625 554.625;"
	 xml:space="preserve">
<g>
	<g>
		<circle cx="239.062" cy="286.875" r="66.938"/>
		<path d="M516.375,143.438h-229.5l-38.25-76.5H38.25C17.212,66.938,0,84.15,0,105.188v344.25c0,21.037,17.212,38.25,38.25,38.25
			h478.125c21.037,0,38.25-17.213,38.25-38.25v-267.75C554.625,160.65,537.412,143.438,516.375,143.438z M395.888,457.088
			L292.612,353.812c-15.3,11.475-32.512,19.125-53.55,19.125c-47.812,0-86.062-38.25-86.062-86.062s38.25-86.062,86.062-86.062
			s86.062,38.25,86.062,86.062c0,21.037-7.65,38.25-19.125,53.55l101.362,101.362L395.888,457.088z"/>
	</g>
</g>
<g>
</g>
<g>
</g>
<g>
</g>
<g>
</g>
<g>
</g>
<g>
</g>
<g>
</g>
<g>
</g>
<g>
</g>
<g>
</g>
<g>
</g>
<g>
</g>
<g>
</g>
<g>
</g>
<g>
</g>
</svg>
