<?xml version="1.0" ?><svg id="Layer_1" style="enable-background:new 0 0 512 512;" version="1.1" viewBox="0 0 512 512" xml:space="preserve" xmlns="http://www.w3.org/2000/svg" xmlns:xlink="http://www.w3.org/1999/xlink"><g id="XMLID_785_"><rect height="19.1" id="XMLID_17_" width="227.1" x="120.3" y="158.6"/><rect height="19.1" id="XMLID_16_" width="227.1" x="120.3" y="189.6"/><rect height="19.1" id="XMLID_15_" width="227.1" x="120.3" y="220.7"/><rect height="19.1" id="XMLID_14_" width="227.1" x="120.3" y="251.7"/><rect height="19.1" id="XMLID_13_" width="176.5" x="120.3" y="282.7"/><path d="M456.1,75.1L397.6,7.3c-1.8-1.8-4.9-1.8-6.7,0l-58.5,67.8c-2.6,2.6-0.6,6.7,3.3,6.7h27.4V135h62.1V81.8   h27.4C456.7,81.8,458.7,77.7,456.1,75.1z" id="XMLID_12_"/><rect height="24.2" id="XMLID_11_" width="62.1" x="363.2" y="144.6"/><path d="M363.2,187.3c0,2.2,2,4,4.5,4h53.1c2.5,0,4.5-1.8,4.5-4v-8.9h-62.1V187.3z" id="XMLID_10_"/><path d="M386.7,464.2c0,15.8-12.8,28.6-28.6,28.6H109.5c-15.8,0-28.6-12.8-28.6-28.6v-8.8H67.7V469   c0,20.5,16.6,37,37,37h258.1c20.5,0,37-16.6,37-37V200.4h-13.2V464.2z" id="XMLID_9_"/><path d="M80.9,110.3c0-15.8,12.8-28.6,28.6-28.6h213.2c-1.4-4.4-0.3-9.3,3-12.7l0.4-0.4H104.8c-20.5,0-37,16.6-37,37   V333h13.2V110.3z" id="XMLID_8_"/><path d="M345.4,394.3L345.4,394.3c0-28.7-23.3-52.1-52.1-52.1H54.7v104.1h238.7C322.1,446.3,345.4,423,345.4,394.3   z M158.6,396.6c-4.1,3.7-9.7,5.5-16.9,5.5h-14.1v24.6h-10.8v-65h24.9c7.2,0,12.8,1.9,16.9,5.6c4.1,3.7,6.1,8.6,6.1,14.6   C164.7,388,162.6,392.9,158.6,396.6z M227.1,399.2c0,8.1-2.6,14.7-7.7,19.9c-5.2,5.1-11.9,7.7-20.1,7.7h-21.5v-65h21.5   c8.2,0,14.9,2.6,20.1,7.7c5.2,5.1,7.7,11.8,7.7,19.9V399.2z M283.4,370.5h-30.8v19.9h26.2v8.7h-26.2v27.7h-10.8v-65h41.6V370.5z" id="XMLID_788_"/><path d="M199.2,370.5h-10.6v47.6h10.6c5.2,0,9.3-1.8,12.4-5.3c3.1-3.5,4.6-8.1,4.6-13.6v-10c0-5.5-1.5-10-4.6-13.5   C208.6,372.2,204.4,370.5,199.2,370.5z" id="XMLID_4_"/><path d="M141.7,370.5h-14.1v22.9h14.1c4,0,7-1.1,9.1-3.2c2-2.1,3-4.9,3-8.2s-1-6.1-3-8.3   C148.7,371.6,145.7,370.5,141.7,370.5z" id="XMLID_758_"/></g></svg>