<?xml version="1.0" encoding="iso-8859-1"?>
<!-- Generator: Adobe Illustrator 16.0.0, SVG Export Plug-In . SVG Version: 6.00 Build 0)  -->
<!DOCTYPE svg PUBLIC "-//W3C//DTD SVG 1.1//EN" "http://www.w3.org/Graphics/SVG/1.1/DTD/svg11.dtd">
<svg version="1.1" id="Capa_1" xmlns="http://www.w3.org/2000/svg" xmlns:xlink="http://www.w3.org/1999/xlink" x="0px" y="0px"
	 width="612px" height="612px" viewBox="0 0 612 612" style="enable-background:new 0 0 612 612;" xml:space="preserve">
<g>
	<g>
		<path d="M0,516.375c0,21.037,17.212,38.25,38.25,38.25h478.125c21.037,0,38.25-17.213,38.25-38.25V306H0V516.375z"/>
		<path d="M516.375,210.375h-229.5l-38.25-76.5H38.25c-21.038,0-38.25,17.212-38.25,38.25v114.75h554.625v-38.25
			C554.625,227.587,537.412,210.375,516.375,210.375z"/>
		<path d="M573.75,133.875h-229.5L306,57.375H95.625c-21.038,0-38.25,17.212-38.25,38.25v19.125H267.75l38.25,76.5h210.375
			c32.513,0,57.375,24.862,57.375,57.375v229.5l0,0c21.037,0,38.25-17.213,38.25-38.25v-267.75
			C612,151.087,594.787,133.875,573.75,133.875z"/>
	</g>
</g>
<g>
</g>
<g>
</g>
<g>
</g>
<g>
</g>
<g>
</g>
<g>
</g>
<g>
</g>
<g>
</g>
<g>
</g>
<g>
</g>
<g>
</g>
<g>
</g>
<g>
</g>
<g>
</g>
<g>
</g>
</svg>
