<?xml version="1.0" ?><svg id="Layer_1" style="enable-background:new 0 0 512 512;" version="1.1" viewBox="0 0 512 512" xml:space="preserve" xmlns="http://www.w3.org/2000/svg" xmlns:xlink="http://www.w3.org/1999/xlink"><g id="XMLID_1407_"><rect height="19.1" id="XMLID_566_" width="227.1" x="120.3" y="158.6"/><rect height="19.1" id="XMLID_565_" width="227.1" x="120.3" y="189.6"/><rect height="19.1" id="XMLID_564_" width="227.1" x="120.3" y="220.7"/><rect height="19.1" id="XMLID_563_" width="227.1" x="120.3" y="251.7"/><rect height="19.1" id="XMLID_562_" width="176.5" x="120.3" y="282.7"/><path d="M456.1,75.1L397.6,7.3c-1.8-1.8-4.9-1.8-6.7,0l-58.5,67.8c-2.6,2.6-0.6,6.7,3.3,6.7h27.4V135h62.1V81.8   h27.4C456.7,81.8,458.7,77.7,456.1,75.1z" id="XMLID_561_"/><rect height="24.2" id="XMLID_560_" width="62.1" x="363.2" y="144.6"/><path d="M363.2,187.3c0,2.2,2,4,4.5,4h53.1c2.5,0,4.5-1.8,4.5-4v-8.9h-62.1V187.3z" id="XMLID_559_"/><path d="M386.7,464.2c0,15.8-12.8,28.6-28.6,28.6H109.5c-15.8,0-28.6-12.8-28.6-28.6v-8.8H67.7V469   c0,20.5,16.6,37,37,37h258.1c20.5,0,37-16.6,37-37V200.4h-13.2V464.2z" id="XMLID_558_"/><path d="M80.9,110.3c0-15.8,12.8-28.6,28.6-28.6h213.2c-1.4-4.4-0.3-9.3,3-12.7l0.4-0.4H104.8   c-20.5,0-37,16.6-37,37V333h13.2V110.3z" id="XMLID_557_"/><path d="M345.4,394.3L345.4,394.3c0-28.7-23.3-52.1-52.1-52.1H54.7v104.1h238.7   C322.1,446.3,345.4,423,345.4,394.3z M140.5,421l-11.6-20.1L117.3,421h-10.6l16.8-26.9l-16.4-26.5h10.5l11.2,19.8l11.3-19.8h10.6   L134.1,394l17.1,26.9H140.5z M194.4,421h-34v-53.5h8.9v46.3h25V421z M236.1,417.8c-3.5,2.6-8,4-13.7,4c-5.4,0-10.2-1.4-14.2-4.3   s-6-7-5.9-12.2l0.1-0.2h8.6c0,3.2,1.1,5.6,3.3,7.3c2.2,1.6,4.9,2.4,8.1,2.4c3.2,0,5.6-0.7,7.4-2c1.7-1.3,2.6-3.1,2.6-5.4   c0-2.2-0.8-4.1-2.4-5.5c-1.6-1.4-4.4-2.7-8.4-3.8c-5.8-1.6-10.2-3.7-13.3-6.3c-3.1-2.6-4.7-6-4.7-10.1c0-4.3,1.7-7.9,5.1-10.6   c3.4-2.8,7.8-4.2,13.2-4.2c5.8,0,10.4,1.5,13.9,4.6c3.5,3.1,5.1,6.9,5,11.5l-0.1,0.2h-8.6c0-2.8-0.9-5.1-2.8-6.7   c-1.9-1.7-4.4-2.5-7.5-2.5c-3,0-5.3,0.7-7,2.1c-1.6,1.4-2.4,3.3-2.4,5.5c0,2.1,0.9,3.8,2.7,5.1c1.8,1.3,4.7,2.6,8.9,3.8   c5.6,1.6,9.9,3.7,12.8,6.4c2.9,2.7,4.4,6.2,4.4,10.4C241.3,411.6,239.6,415.1,236.1,417.8z M271.1,400.9L259.5,421h-10.6l16.8-26.9   l-16.4-26.5h10.5l11.2,19.8l11.3-19.8h10.6L276.4,394l17.1,26.9h-10.7L271.1,400.9z" id="XMLID_1408_"/></g></svg>