<?xml version="1.0" encoding="iso-8859-1"?>
<!-- Generator: Adobe Illustrator 16.0.0, SVG Export Plug-In . SVG Version: 6.00 Build 0)  -->
<!DOCTYPE svg PUBLIC "-//W3C//DTD SVG 1.1//EN" "http://www.w3.org/Graphics/SVG/1.1/DTD/svg11.dtd">
<svg version="1.1" id="Capa_1" xmlns="http://www.w3.org/2000/svg" xmlns:xlink="http://www.w3.org/1999/xlink" x="0px" y="0px"
	 width="516.375px" height="516.375px" viewBox="0 0 516.375 516.375" style="enable-background:new 0 0 516.375 516.375;"
	 xml:space="preserve">
<g>
	<g>
		<rect x="153" y="306" width="19.125" height="19.125"/>
		<rect x="153" y="401.625" width="19.125" height="19.125"/>
		<rect x="153" y="210.375" width="19.125" height="19.125"/>
		<path d="M344.25,133.875h95.625L325.125,0v114.75C325.125,126.225,334.688,133.875,344.25,133.875z"/>
		<path d="M306,114.75V0H114.75C93.712,0,76.5,17.212,76.5,38.25v439.875c0,21.037,17.212,38.25,38.25,38.25h286.875
			c21.037,0,38.25-17.213,38.25-38.25V153H344.25C323.213,153,306,135.788,306,114.75z M191.25,439.875h-57.375V382.5h57.375
			V439.875z M191.25,344.25h-57.375v-57.375h57.375V344.25z M191.25,248.625h-57.375V191.25h57.375V248.625z M382.5,420.75h-153
			v-19.125h153V420.75z M382.5,325.125h-153V306h153V325.125z M382.5,229.5h-153v-19.125h153V229.5z"/>
	</g>
</g>
<g>
</g>
<g>
</g>
<g>
</g>
<g>
</g>
<g>
</g>
<g>
</g>
<g>
</g>
<g>
</g>
<g>
</g>
<g>
</g>
<g>
</g>
<g>
</g>
<g>
</g>
<g>
</g>
<g>
</g>
</svg>
