<?xml version="1.0" ?><svg style="enable-background:new 0 0 24 24;" version="1.1" viewBox="0 0 24 24" xml:space="preserve" xmlns="http://www.w3.org/2000/svg" xmlns:xlink="http://www.w3.org/1999/xlink"><style type="text/css">
	.st0{display:none;}
</style><g class="st0" id="grid"/><g id="icon"><path d="M7.519,8.5H3.481C1.562,8.5,0,10.062,0,12.019C0,13.938,1.562,15.5,3.481,15.5h4.037c1.244,0,2.401-0.67,3.021-1.75   c0.138-0.24,0.055-0.545-0.185-0.683c-0.24-0.138-0.545-0.055-0.683,0.185C9.23,14.022,8.405,14.5,7.519,14.5H3.481   C2.113,14.5,1,13.387,1,11.981C1,10.613,2.113,9.5,3.481,9.5h4.037c0.886,0,1.711,0.478,2.153,1.247   c0.138,0.24,0.445,0.321,0.683,0.185c0.239-0.138,0.322-0.443,0.185-0.683C9.919,9.17,8.762,8.5,7.519,8.5z"/><path d="M20.519,8.5h-4.037c-1.158,0-2.237,0.574-2.887,1.534c-0.155,0.229-0.095,0.54,0.134,0.694   c0.229,0.155,0.54,0.095,0.694-0.134C14.887,9.909,15.656,9.5,16.481,9.5h4.037C21.887,9.5,23,10.613,23,12.019   c0,1.368-1.113,2.481-2.481,2.481h-4.037c-0.886,0-1.71-0.477-2.152-1.246c-0.139-0.24-0.447-0.323-0.683-0.184   c-0.24,0.138-0.322,0.443-0.185,0.683c0.62,1.077,1.777,1.747,3.02,1.747h4.037c1.92,0,3.481-1.562,3.481-3.519   C24,10.062,22.438,8.5,20.519,8.5z"/><path d="M7.5,12c0,0.276,0.224,0.5,0.5,0.5h8c0.276,0,0.5-0.224,0.5-0.5s-0.224-0.5-0.5-0.5H8C7.724,11.5,7.5,11.724,7.5,12z"/></g></svg>