<?xml version="1.0" ?><svg style="enable-background:new 0 0 24 24;" version="1.1" viewBox="0 0 24 24" xml:space="preserve" xmlns="http://www.w3.org/2000/svg" xmlns:xlink="http://www.w3.org/1999/xlink"><style type="text/css">
	.st0{display:none;}
</style><g class="st0" id="grid"/><g id="icon"><path d="M5.998,10.235c0.195-0.195,0.195-0.512,0-0.707s-0.512-0.195-0.707,0l-3.39,3.39c-2.531,2.531-2.531,6.649,0,9.181   c1.266,1.266,2.928,1.898,4.59,1.898c1.663,0,3.325-0.633,4.591-1.898l3.39-3.39c2.531-2.531,2.531-6.649,0-9.181   c-0.195-0.195-0.512-0.195-0.707,0s-0.195,0.512,0,0.707c2.141,2.142,2.141,5.625,0,7.767l-3.39,3.39   c-2.141,2.14-5.625,2.142-7.767,0c-2.141-2.142-2.141-5.625,0-7.767L5.998,10.235z"/><path d="M18.002,13.765c-0.195,0.195-0.195,0.512,0,0.707c0.098,0.098,0.226,0.146,0.354,0.146s0.256-0.049,0.354-0.146l3.39-3.39   c2.531-2.531,2.531-6.649,0-9.181c-2.531-2.532-6.65-2.53-9.181,0l-3.39,3.39c-2.531,2.531-2.531,6.649,0,9.181   c0.195,0.195,0.512,0.195,0.707,0s0.195-0.512,0-0.707c-2.141-2.142-2.141-5.625,0-7.767l3.39-3.39   c2.141-2.141,5.625-2.141,7.767,0c2.141,2.142,2.141,5.625,0,7.767L18.002,13.765z"/></g></svg>