<?xml version="1.0" ?><svg style="enable-background:new 0 0 24 24;" version="1.1" viewBox="0 0 24 24" xml:space="preserve" xmlns="http://www.w3.org/2000/svg" xmlns:xlink="http://www.w3.org/1999/xlink"><style type="text/css">
	.st0{display:none;}
</style><g class="st0" id="grid"/><g id="icon"><path d="M5.607,13.689c0.833-0.832,2.057-1.16,3.2-0.852c0.266,0.073,0.541-0.085,0.612-0.353c0.072-0.267-0.086-0.541-0.353-0.613   c-1.485-0.4-3.08,0.025-4.167,1.111L1.26,16.623c-1.677,1.678-1.677,4.407,0.034,6.117C2.106,23.552,3.187,24,4.335,24   c0.001,0,0.001,0,0.001,0c1.148,0,2.229-0.447,3.041-1.26l3.641-3.641c1.087-1.086,1.512-2.684,1.11-4.168   c-0.071-0.267-0.344-0.426-0.613-0.352c-0.267,0.072-0.424,0.346-0.352,0.613c0.308,1.14-0.019,2.366-0.853,3.2L6.67,22.033   C6.047,22.657,5.218,23,4.336,23c-0.883,0-1.711-0.344-2.369-1.001c-1.287-1.287-1.287-3.382,0-4.669L5.607,13.689z"/><path d="M14.936,12.129c0.368,0.099,0.743,0.147,1.116,0.147c1.128,0,2.232-0.443,3.048-1.259l3.641-3.641   c1.677-1.678,1.677-4.407-0.034-6.118c-1.678-1.678-4.405-1.676-6.083,0L12.982,4.9c-1.013,1.013-1.454,2.457-1.182,3.863   c0.054,0.271,0.326,0.447,0.586,0.396c0.271-0.052,0.448-0.315,0.396-0.586c-0.21-1.08,0.129-2.188,0.906-2.966l3.641-3.641   c1.287-1.286,3.381-1.288,4.703,0.034c1.287,1.287,1.287,3.382,0,4.669l-3.641,3.641c-0.833,0.833-2.058,1.159-3.197,0.853   c-0.261-0.07-0.541,0.087-0.612,0.353C14.511,11.783,14.669,12.058,14.936,12.129z"/><path d="M15.96,8.04c-0.195-0.195-0.512-0.195-0.707,0L8.04,15.253c-0.195,0.195-0.195,0.512,0,0.707   c0.098,0.098,0.226,0.146,0.354,0.146s0.256-0.049,0.354-0.146l7.213-7.214C16.155,8.551,16.155,8.235,15.96,8.04z"/></g></svg>