<?xml version="1.0" encoding="utf-8"?>
<!-- Generator: Adobe Illustrator 16.0.0, SVG Export Plug-In . SVG Version: 6.00 Build 0)  -->
<!DOCTYPE svg PUBLIC "-//W3C//DTD SVG 1.1//EN" "http://www.w3.org/Graphics/SVG/1.1/DTD/svg11.dtd">
<svg version="1.1" id="Layer_1" xmlns="http://www.w3.org/2000/svg" xmlns:xlink="http://www.w3.org/1999/xlink" x="0px" y="0px"
	 width="24px" height="24px" viewBox="0 0 24 24" enable-background="new 0 0 24 24" xml:space="preserve">
<g>
	<g>
		<path fill="#010101" d="M22.131,8.973l-3.27,3.271l-1.674-1.659l-1.844,1.859l3.527,3.527L24,10.841L22.131,8.973z M12.521,12.511
			c1.681-1.269,2.774-3.279,2.774-5.543c0-3.833-3.119-6.952-6.951-6.952c-3.833,0-6.951,3.12-6.951,6.952
			c0,2.264,1.093,4.273,2.774,5.543C1.778,13.767,0,16.247,0,18.597v5.388h16.658v-5.388C16.658,16.24,14.902,13.759,12.521,12.511z
			 M2.375,6.968c0-1.073,0.289-2.079,0.786-2.95c0.229,0.283,0.477,0.544,0.755,0.76c1.08,0.839,2.502,1.201,4.058,1.249
			C8.097,6.03,8.22,6.034,8.344,6.034c0.458,0,0.92-0.025,1.375-0.087c0.371-0.049,0.854-0.271,1.214-0.245
			c0.378,0.027,1.315,0.383,1.455,0.77c0.008-0.21-0.057-0.401-0.095-0.604c0.084,0.136,0.209,0.228,0.362,0.253
			c0.007-0.159,0.004-0.325,0.011-0.485c0.081,0.043,0.271,0.063,0.345,0.123c-0.039-0.03,0.022-1.157,0.056-1.252
			c0.067-0.192,0.236-0.384,0.408-0.572c0.528,0.892,0.838,1.926,0.838,3.036c0,3.292-2.678,5.97-5.969,5.97
			C5.052,12.937,2.375,10.259,2.375,6.968z M11.826,16.616l1.585,1.557l-3.609,3.921L8.498,23.51
			c-0.003,0.007-0.005,0.008-0.01,0.013c-0.029,0.036-0.056,0.07-0.076,0.095c-0.037,0.055-0.058,0.086-0.058,0.086
			c-0.001-0.003-0.002-0.006-0.003-0.009c-0.003,0.002-0.008,0.009-0.008,0.009l-0.011-0.012l-0.011,0.012l0.006-0.019l-0.186-0.201
			l-1.427-1.549l-3.463-3.761l1.606-1.578l0.289-0.346L4.698,16.1l-2.542-0.745l2.236-2.667l0.003-0.006
			c0.964,0.668,2.105,1.098,3.338,1.206l-0.271,0.287l-0.421,0.509l0.995,1.157c0,0-0.636,0.738-0.947,3.838l1.235,3.962
			c0.002,0.007,0.007,0.014,0.01,0.022l1.262-4.048c-0.322-3.077-0.995-3.772-0.995-3.772l0.974-1.134L8.81,13.898
			c1.283-0.088,2.472-0.517,3.471-1.208l0.045,0.063l2.183,2.603l-2.5,0.731l-0.49,0.162L11.826,16.616z"/>
	</g>
</g>
</svg>
