<?xml version="1.0" encoding="utf-8"?>
<!-- Generator: Adobe Illustrator 16.0.0, SVG Export Plug-In . SVG Version: 6.00 Build 0)  -->
<!DOCTYPE svg PUBLIC "-//W3C//DTD SVG 1.1//EN" "http://www.w3.org/Graphics/SVG/1.1/DTD/svg11.dtd">
<svg version="1.1" id="Layer_1" xmlns="http://www.w3.org/2000/svg" xmlns:xlink="http://www.w3.org/1999/xlink" x="0px" y="0px"
	 width="24px" height="24px" viewBox="0 0 24 24" enable-background="new 0 0 24 24" xml:space="preserve">
<g>
	<g>
		<path fill="#010101" d="M23.597,11.803h-0.462v-1.538c0-0.767-0.293-1.469-0.771-1.981c-0.479-0.513-1.16-0.843-1.914-0.842
			c-0.751-0.001-1.434,0.329-1.911,0.842c-0.481,0.512-0.773,1.215-0.773,1.981v1.538h-0.459c-0.192,0-0.347,0.153-0.347,0.345
			v4.064c0,0.19,0.154,0.346,0.347,0.346h6.291c0.189,0,0.346-0.155,0.346-0.346v-4.064C23.942,11.956,23.786,11.803,23.597,11.803z
			 M20.737,14.063v0.756c0,0.121-0.099,0.219-0.218,0.219h-0.139c-0.121,0-0.217-0.098-0.217-0.219v-0.756
			c-0.159-0.097-0.264-0.269-0.264-0.468c0-0.305,0.246-0.551,0.549-0.551c0.305,0,0.553,0.246,0.553,0.551
			C21.002,13.795,20.896,13.966,20.737,14.063z M21.858,11.803H19.04v-1.538c0-0.442,0.17-0.834,0.428-1.113
			c0.263-0.276,0.604-0.438,0.981-0.438c0.379,0,0.72,0.162,0.981,0.438c0.261,0.279,0.428,0.67,0.428,1.113V11.803z M12.318,12.468
			c1.623-1.272,2.671-3.247,2.671-5.464c0-3.831-3.116-6.947-6.943-6.947c-3.829,0-6.947,3.116-6.947,6.946
			c0,2.229,1.06,4.211,2.698,5.482c-2.278,1.245-3.854,3.723-3.854,6.079v5.379h16.266v-5.377
			C16.208,16.198,14.614,13.706,12.318,12.468z M12.414,6.854c-0.131,1.53-3.232,1.53-3.363,0
			C8.923,5.361,12.283,5.313,12.414,6.854z M3.638,4.225c0.691-0.965,1.283-1.627,1.718-2.06C5.842,1.685,5.981,1.64,5.981,1.64
			s0.251,0.101,0.296,0.15c0.367,0.417,1.812,1.535,3.431,2.69c0.298,0.212,0.601,0.425,0.902,0.636
			c-0.979,0.038-1.917,0.54-2.129,1.502c-0.239,0-0.477,0-0.717,0c-0.539-1.865-3.931-1.862-4.46,0.01
			C2.92,6.629,2.537,6.629,2.15,6.629c-0.008,0-0.014,0.005-0.021,0.005C2.664,5.68,3.173,4.881,3.638,4.225z M7.219,6.963
			c-0.133,1.529-3.231,1.529-3.365,0C3.725,5.471,7.086,5.425,7.219,6.963z M2.105,7.236c0.018,0.003,0.029,0.01,0.045,0.01
			C2.52,7.245,2.89,7.245,3.26,7.245C3.398,8.224,4.701,8.673,5.535,8.71c0.98,0.044,2.002-0.521,2.244-1.475
			c0.228,0,0.455,0,0.685,0c0.21,0.912,1.462,1.329,2.269,1.364c0.95,0.043,1.941-0.482,2.222-1.382c0.298,0,0.595,0,0.891,0
			c0.046,0.026,0.091,0.053,0.136,0.077c-0.153,3.146-2.754,5.661-5.937,5.661C4.843,12.955,2.23,10.409,2.105,7.236z M8.042,23.708
			l-0.008-0.013l-0.012,0.013l0.006-0.02l-5.065-5.501l1.954-1.919l-3.048-0.891l2.229-2.663c0.954,0.662,2.081,1.09,3.298,1.203
			l-0.65,0.789l0.991,1.155c0,0-0.785,0.9-1.036,4.955c-0.059,0.932,0.595,1.316,1.351,2.883L8.042,23.708z M11.288,16.404
			l1.815,1.783l-4.72,5.129l-0.283,0.328c0.204-0.302,1.343-2.025,1.289-2.875c-0.251-4.055-1.085-4.909-1.085-4.909l0.991-1.155
			l-0.653-0.786c1.23-0.105,2.37-0.531,3.334-1.195l2.222,2.651l-2.832,0.83l-0.194,0.062L11.288,16.404z"/>
	</g>
</g>
</svg>
