<?xml version="1.0" encoding="utf-8"?>
<!-- Generator: Adobe Illustrator 16.0.0, SVG Export Plug-In . SVG Version: 6.00 Build 0)  -->
<!DOCTYPE svg PUBLIC "-//W3C//DTD SVG 1.1//EN" "http://www.w3.org/Graphics/SVG/1.1/DTD/svg11.dtd">
<svg version="1.1" id="Layer_1" xmlns="http://www.w3.org/2000/svg" xmlns:xlink="http://www.w3.org/1999/xlink" x="0px" y="0px"
	 width="24px" height="24px" viewBox="0 0 24 24" enable-background="new 0 0 24 24" xml:space="preserve">
<g>
	<g>
		<path fill="#010101" d="M9.644,13.881c0,0-0.336,0.863-0.334,0.867l0.534,0.758h1.178l0.534-0.758
			c-0.004-0.014-0.334-0.867-0.334-0.867C11.183,13.887,9.683,13.887,9.644,13.881z M6.611,8.844
			c0.687,2.01,1.981,3.538,3.823,3.538c1.774,0,3.087-1.506,3.797-3.513c1.433-1.445,1.095-2.525,0.765-3.041
			C15.773,2.102,13.394,0,10.298,0C4.749,0,5.717,6.08,5.717,6.08C5.723,6.081,5.73,6.081,5.736,6.082
			C5.482,6.654,5.407,7.616,6.611,8.844z M8.928,4.33L8.523,5.839c1.981-0.604,2.247-0.936,2.559-1.163
			c0.324-0.235,0.599-0.474,0.82-0.691c0.102,0.184,0.231,0.352,0.379,0.504c0.146,0.154,0.363-1.397,0.363-1.397
			s0.548,0.942,0.624,1.247c0.054,0.216,0.399,1.09,0.586,1.17c-0.069,2.885-1.364,5.9-3.42,5.9c-1.915,0-3.169-2.615-3.389-5.305
			C7.57,6.072,8.928,4.33,8.928,4.33z M17.292,17.806v-3.068h-3.045v-2.891l-0.469-0.173l-0.369,0.9l0.779,0.287l-2.841,9.375
			l-0.358-6.295H9.881l-0.354,6.18l-2.81-9.273l0.747-0.273l-0.373-0.899l-2.758,1.015l-0.035,0.015
			c-0.035,0.017-2.663,1.267-3.814,4.295C0.25,17.616,0.077,18.307,0,19.076C2.475,22.08,6.226,23.998,10.425,24h0.019
			c0.227,0,0.452-0.006,0.676-0.018h0.015c3.917-0.201,7.394-2.068,9.733-4.908c-0.046-0.452-0.132-0.87-0.237-1.269H17.292z
			 M16.707,20.161c-1.153,0.463-2.34,0.545-3.023,0.545c-0.23,0-0.402-0.011-0.499-0.017v-0.58c0.031,0.002,1.994,0.232,3.522-0.555
			V20.161z M20.907,11.12V8.14h-2.615v2.98h-3.045v2.617h3.045v3.068h2.615v-3.068h3.006V11.12H20.907z"/>
	</g>
</g>
</svg>
