<?xml version="1.0" encoding="utf-8"?>
<!-- Generator: Adobe Illustrator 16.0.0, SVG Export Plug-In . SVG Version: 6.00 Build 0)  -->
<!DOCTYPE svg PUBLIC "-//W3C//DTD SVG 1.1//EN" "http://www.w3.org/Graphics/SVG/1.1/DTD/svg11.dtd">
<svg version="1.1" id="Layer_1" xmlns="http://www.w3.org/2000/svg" xmlns:xlink="http://www.w3.org/1999/xlink" x="0px" y="0px"
	 width="24px" height="24px" viewBox="0 0 24 24" enable-background="new 0 0 24 24" xml:space="preserve">
<g>
	<g>
		<path fill="#010101" d="M20.002,8.529c-2.17,0-3.93,1.759-3.93,3.929s1.76,3.929,3.93,3.929s3.928-1.759,3.928-3.929
			S22.172,8.529,20.002,8.529z M20.002,15.52c-1.691,0-3.063-1.37-3.063-3.062s1.371-3.062,3.063-3.062s3.061,1.37,3.061,3.062
			S21.693,15.52,20.002,15.52z M12.432,12.47c1.631-1.278,2.684-3.262,2.684-5.49c0-3.849-3.131-6.98-6.977-6.98
			c-3.848,0-6.98,3.131-6.98,6.979c0,2.24,1.064,4.231,2.711,5.509c-2.289,1.25-3.873,3.741-3.873,6.108V24H16.34v-5.402
			C16.34,16.218,14.738,13.714,12.432,12.47z M12.527,6.829c-0.131,1.537-3.248,1.537-3.379,0C9.02,5.329,12.396,5.281,12.527,6.829
			z M3.709,4.188c0.695-0.97,1.289-1.635,1.727-2.07C5.924,1.635,6.064,1.59,6.064,1.59s0.252,0.101,0.297,0.151
			C6.73,2.16,8.182,3.283,9.809,4.444c0.299,0.213,0.604,0.426,0.906,0.638c-0.982,0.039-1.926,0.543-2.139,1.51
			c-0.24,0-0.479,0-0.721,0c-0.541-1.874-3.949-1.871-4.48,0.01c-0.387,0.001-0.771,0.001-1.16,0.001
			c-0.008,0-0.014,0.005-0.021,0.005C2.73,5.65,3.242,4.847,3.709,4.188z M7.309,6.939c-0.135,1.537-3.248,1.537-3.383,0
			C3.797,5.44,7.174,5.393,7.309,6.939z M2.17,7.213c0.018,0.003,0.029,0.01,0.045,0.01c0.371-0.001,0.742-0.001,1.113-0.001
			c0.141,0.984,1.449,1.435,2.287,1.473c0.986,0.044,2.012-0.523,2.256-1.482c0.229,0,0.457,0,0.688,0
			c0.211,0.916,1.469,1.335,2.279,1.371c0.955,0.043,1.951-0.485,2.232-1.389c0.299,0,0.598,0,0.895,0
			c0.047,0.026,0.092,0.053,0.137,0.077c-0.154,3.161-2.768,5.688-5.965,5.688C4.92,12.959,2.295,10.401,2.17,7.213z M8.135,23.764
			l-0.008-0.013l-0.012,0.013l0.006-0.02l-5.09-5.527l1.963-1.929l-3.063-0.896l2.24-2.676c0.959,0.665,2.092,1.096,3.314,1.209
			l-0.654,0.793l0.996,1.16c0,0-0.789,0.904-1.041,4.979c-0.059,0.937,0.598,1.322,1.357,2.896L8.135,23.764z M11.396,16.425
			l1.824,1.792L8.479,23.37l-0.285,0.329c0.205-0.303,1.35-2.034,1.295-2.889c-0.252-4.074-1.09-4.933-1.09-4.933l0.996-1.16
			l-0.656-0.79c1.236-0.105,2.381-0.533,3.35-1.201l2.232,2.664l-2.846,0.834l-0.195,0.063L11.396,16.425z M20.551,11.494h-1.105
			v0.002h-0.41v0.642h0.41v2.293H19.01v0.613h0.436v0.005h1.105v-0.005h0.361v-0.613h-0.361V11.494z M19.99,11.058
			c0.371,0,0.596-0.247,0.596-0.552c-0.008-0.313-0.225-0.552-0.58-0.552s-0.59,0.239-0.59,0.552
			C19.416,10.811,19.641,11.058,19.99,11.058z"/>
	</g>
</g>
</svg>
