<?xml version="1.0" ?><!DOCTYPE svg  PUBLIC '-//W3C//DTD SVG 1.1//EN'  'http://www.w3.org/Graphics/SVG/1.1/DTD/svg11.dtd'><svg enable-background="new 0 0 30 30" height="30px" id="Layer_1" version="1.1" viewBox="0 0 30 30" width="30px" xml:space="preserve" xmlns="http://www.w3.org/2000/svg" xmlns:xlink="http://www.w3.org/1999/xlink"><g><path d="M24.244,4.045c-2.41-2.856-5.545-4.202-9.404-4.03C11.27-0.157,8.254,1.19,5.809,4.06c-2.447,2.866-3.67,6.446-3.67,10.735   c0,3.822,0.941,7.137,2.82,9.916C7.346,28.232,10.713,30,15.07,30c4.348,0,7.713-1.85,10.094-5.545   c1.799-2.791,2.697-6.016,2.697-9.68C27.861,10.473,26.654,6.898,24.244,4.045z M20.529,22.982   c-0.584,1.996-1.398,3.451-2.445,4.363c-0.82,0.707-1.844,1.061-3.064,1.061c-1.82,0-3.234-0.824-4.246-2.467   c-1.449-2.363-2.176-6.014-2.176-10.955c0-4.15,0.473-7.329,1.412-9.551c1.15-2.701,2.83-4.051,5.045-4.051   c1.199,0,2.266,0.39,3.182,1.172c0.92,0.773,1.682,2.117,2.275,4.023c0.594,1.896,0.893,4.751,0.893,8.58   C21.402,18.375,21.111,20.982,20.529,22.982z"/></g></svg>