<?xml version="1.0" standalone="no"?>
<!DOCTYPE svg PUBLIC "-//W3C//DTD SVG 1.1//EN" "http://www.w3.org/Graphics/SVG/1.1/DTD/svg11.dtd" >
<svg xmlns="http://www.w3.org/2000/svg">
<metadata>Generated by IcoMoon</metadata>
<defs>
<font id="icomoon" horiz-adv-x="1024">
<font-face units-per-em="1024" ascent="960" descent="-64" />
<missing-glyph horiz-adv-x="1024" />
<glyph unicode="&#x20;" horiz-adv-x="512" d="" />
<glyph unicode="&#xe900;" glyph-name="bs-add" d="M512 960c-282.351 0-512-229.649-512-512s229.649-512 512-512 512 229.649 512 512-229.649 512-512 512zM512 4.267c-244.668 0-443.733 199.066-443.733 443.733s199.066 443.733 443.733 443.733 443.733-199.066 443.733-443.733-199.066-443.733-443.733-443.733zM546.133 721.067h-68.267v-238.933h-238.933v-68.267h238.933v-238.933h68.267v238.933h238.933v68.267h-238.933z" />
<glyph unicode="&#xe901;" glyph-name="bs-add-2" d="M1024 374.857h-438.857v-438.857h-146.286v438.857h-438.857v146.286h438.857v438.857h146.286v-438.857h438.857v-146.286z" />
<glyph unicode="&#xe902;" glyph-name="bs-angular" d="M423.68 420.512h176.32l-88.16 209.344zM511.84 959.68l-482.496-169.824 73.504-629.664 408.992-223.84 409.152 223.488 73.504 630.016-482.656 169.664zM812.992 179.008h-112.512l-60.672 149.344h-256l-60.672-149.344h-112.512l301.152 667.68z" />
<glyph unicode="&#xe903;" glyph-name="bs-arrow-down" d="M1013.768 685.029l-51.299 51.295c-6.836 6.85-14.71 10.264-23.612 10.264-8.88 0-16.751-3.414-23.587-10.264l-403.265-403.244-403.247 403.233c-6.839 6.85-14.71 10.264-23.601 10.264-8.895 0-16.765-3.414-23.601-10.264l-51.292-51.299c-6.85-6.836-10.264-14.706-10.264-23.601 0-8.888 3.425-16.758 10.264-23.594l478.14-478.151c6.836-6.839 14.71-10.257 23.601-10.257s16.751 3.418 23.583 10.257l478.18 478.151c6.836 6.839 10.232 14.71 10.232 23.594 0 8.895-3.396 16.765-10.232 23.615z" />
<glyph unicode="&#xe904;" glyph-name="bs-arrow-down-2" d="M469.333 832v-665.003l-225.835 225.835c-16.661 16.661-43.669 16.661-60.331 0s-16.661-43.68 0-60.341l298.667-298.667c16.661-16.661 43.68-16.661 60.331 0l298.667 298.667c8.331 8.331 12.501 19.253 12.501 30.176 0 10.912-4.171 21.835-12.501 30.165-16.661 16.661-43.68 16.661-60.331 0l-225.835-225.835v665.003c0 23.552-19.104 42.667-42.667 42.667s-42.667-19.104-42.667-42.667z" />
<glyph unicode="&#xe905;" glyph-name="bs-arrow-down-circle" d="M501.097 296.646c5.861-5.325 13.206-7.942 20.537-7.942 1.163 0 2.311 0.23 3.489 0.352 0.428-0.015 0.872-0.122 1.301-0.122 8.34 0 16.65 3.397 22.679 10.054l233.080 257.152c11.355 12.518 10.406 31.876-2.127 43.216-12.518 11.37-31.876 10.391-43.216-2.127l-214.808-236.967-236.998 214.808c-12.533 11.385-31.876 10.406-43.216-2.127-11.355-12.518-10.406-31.876 2.127-43.216l257.152-233.080zM511.992-64c282.325 0 512.008 229.683 512.008 511.992 0 282.325-229.683 512.008-512.008 512.008-282.31 0-511.992-229.683-511.992-512.008 0-282.31 229.683-511.992 511.992-511.992zM511.992 898.788c248.567 0 450.796-202.229 450.796-450.796 0-248.551-202.229-450.78-450.796-450.78-248.551 0-450.78 202.229-450.78 450.78 0 248.567 202.229 450.796 450.78 450.796z" />
<glyph unicode="&#xe906;" glyph-name="bs-arrow-left" d="M703.305-2.878c6.35-6.35 14.288-9.526 23.020-9.526s16.67 3.175 23.020 9.526c12.701 12.701 12.701 33.34 0 46.040l-404.837 404.837 404.837 404.837c12.701 12.701 12.701 33.34 0 46.040s-33.34 12.701-46.040 0l-428.651-427.857c-12.701-12.701-12.701-33.34 0-46.040l428.651-427.857z" />
<glyph unicode="&#xe907;" glyph-name="bs-arrow-left-2" d="M982.636 489.364h-941.272c-22.844 0-41.364-18.52-41.364-41.364 0-22.846 18.52-41.364 41.364-41.364h941.272c22.846 0 41.364 18.518 41.364 41.364 0 22.844-18.518 41.364-41.364 41.364zM99.864 448l323.726 323.728c16.154 16.154 16.154 42.344 0 58.498-16.154 16.152-42.344 16.152-58.498 0l-352.976-352.976c-16.154-16.154-16.154-42.344 0-58.498l352.976-352.976c8.076-8.078 18.664-12.116 29.25-12.116s21.174 4.038 29.25 12.116c16.154 16.154 16.154 42.344 0 58.498l-323.728 323.726z" />
<glyph unicode="&#xe908;" glyph-name="bs-arrow-left-circle" d="M512 960c-282.77 0-512-229.23-512-512s229.23-512 512-512c282.77 0 512 229.23 512 512v0c-0.319 282.642-229.359 511.682-511.97 512h-0.030zM512-16c-256.26 0-464 207.74-464 464s207.74 464 464 464c256.26 0 464-207.74 464-464v0c-0.318-256.132-207.868-463.681-463.969-464h-0.031zM592.96 672.96c-4.342 4.337-10.338 7.019-16.96 7.019s-12.618-2.682-16.96-7.019v0l-208-208c-4.337-4.342-7.019-10.338-7.019-16.96s2.682-12.618 7.019-16.96v0l208-208c4.274-3.991 10.032-6.441 16.361-6.441 13.255 0 24 10.745 24 24 0 6.33-2.45 12.087-6.454 16.375l0.013-0.014-191.040 191.040 191.040 191.040c4.337 4.342 7.019 10.338 7.019 16.96s-2.682 12.618-7.019 16.96v0z" />
<glyph unicode="&#xe909;" glyph-name="bs-arrow-right" d="M320.695-2.878c-6.35-6.35-14.288-9.526-23.020-9.526s-16.67 3.175-23.020 9.526c-12.701 12.701-12.701 33.34 0 46.040l404.837 404.837-404.837 404.837c-12.701 12.701-12.701 33.34 0 46.040s33.34 12.701 46.040 0l427.857-427.857c12.701-12.701 12.701-33.34 0-46.040l-427.857-427.857z" />
<glyph unicode="&#xe90a;" glyph-name="bs-arrow-right-2" d="M982.636 489.364h-941.272c-22.844 0-41.364-18.52-41.364-41.364 0-22.846 18.52-41.364 41.364-41.364h941.272c22.846 0 41.364 18.518 41.364 41.364 0 22.844-18.518 41.364-41.364 41.364zM1011.884 477.25l-352.976 352.976c-16.154 16.152-42.344 16.152-58.498 0-16.152-16.154-16.152-42.344 0-58.498l323.728-323.728-323.728-323.726c-16.152-16.154-16.152-42.344 0-58.498 8.076-8.078 18.664-12.116 29.25-12.116s21.174 4.038 29.25 12.116l352.976 352.976c16.152 16.154 16.152 42.344-0.002 58.498z" />
<glyph unicode="&#xe90b;" glyph-name="bs-arrow-right-circle" d="M512 960c-282.77 0-512-229.23-512-512s229.23-512 512-512c282.77 0 512 229.23 512 512v0c-0.319 282.642-229.359 511.682-511.97 512h-0.030zM512-16c-256.26 0-464 207.74-464 464s207.74 464 464 464c256.26 0 464-207.74 464-464v0c-0.318-256.132-207.868-463.681-463.969-464h-0.031zM464.96 672.96c-4.274 3.991-10.032 6.441-16.361 6.441-13.255 0-24-10.745-24-24 0-6.33 2.45-12.087 6.454-16.375l-0.013 0.014 191.040-191.040-191.040-191.040c-4.706-4.393-7.639-10.634-7.639-17.559 0-13.255 10.745-24 24-24 6.925 0 13.165 2.933 17.546 7.625l0.013 0.014 208 208c4.337 4.342 7.019 10.338 7.019 16.96s-2.682 12.618-7.019 16.96v0z" />
<glyph unicode="&#xe90c;" glyph-name="bs-arrow-up" d="M1013.768 258.17l-478.18 478.147c-6.832 6.839-14.692 10.264-23.583 10.264s-16.765-3.425-23.601-10.264l-478.14-478.147c-6.85-6.85-10.264-14.71-10.264-23.605 0-8.891 3.425-16.762 10.264-23.597l51.292-51.288c6.839-6.839 14.71-10.257 23.601-10.257s16.762 3.418 23.601 10.257l403.247 403.24 403.262-403.265c6.836-6.839 14.71-10.235 23.587-10.235 8.906 0 16.776 3.418 23.612 10.235l51.299 51.31c6.836 6.836 10.232 14.71 10.232 23.597 0.004 8.898-3.393 16.769-10.228 23.608z" />
<glyph unicode="&#xe90d;" glyph-name="bs-arrow-up-2" d="M554.667 64.011v665.003l225.835-225.835c16.661-16.661 43.669-16.661 60.331 0s16.661 43.68 0 60.341l-298.667 298.667c-16.661 16.661-43.68 16.661-60.331 0l-298.667-298.667c-8.331-8.331-12.501-19.243-12.501-30.176 0-10.912 4.171-21.835 12.501-30.165 16.661-16.661 43.68-16.661 60.331 0l225.835 225.835v-665.003c0-23.563 19.104-42.667 42.667-42.667s42.667 19.104 42.667 42.667z" />
<glyph unicode="&#xe90e;" glyph-name="bs-arrow-up-circle" d="M264.497 313.005c7.33 0 14.676 2.617 20.537 7.942l236.998 214.808 214.808-236.982c6.045-6.672 14.354-10.054 22.679-10.054 7.33 0 14.676 2.617 20.537 7.942 12.518 11.34 13.482 30.698 2.127 43.216l-233.080 257.121c-6.244 6.902-14.951 10.161-23.582 9.901-8.57 1.087-17.522-1.285-24.424-7.544l-257.167-233.080c-12.518-11.34-13.482-30.698-2.127-43.216 6.045-6.657 14.354-10.054 22.694-10.054zM511.992-64c282.325 0 512.008 229.683 512.008 512.008 0 282.31-229.683 511.992-512.008 511.992-282.31 0-511.992-229.683-511.992-511.992 0-282.325 229.683-512.008 511.992-512.008zM511.992 898.788c248.567 0 450.796-202.229 450.796-450.78 0-248.567-202.229-450.796-450.796-450.796-248.551 0-450.78 202.229-450.78 450.796 0 248.551 202.229 450.78 450.78 450.78z" />
<glyph unicode="&#xe90f;" glyph-name="bs-aston" d="M511.999 960c-282.623 0-511.999-229.376-511.999-511.999 0-282.625 229.376-511.999 511.999-511.999 282.625 0 511.999 229.376 511.999 511.999 0.002 282.623-229.374 511.999-511.999 511.999zM405.503 583.168l-20.479-32.768-57.344 36.863-57.344-36.863-24.576 32.768 40.96 28.673-40.96 28.673 24.576 32.768 57.344-36.865 57.344 36.863 24.576-32.768-40.96-28.673 36.863-28.671zM511.999 140.8c-57.344 0-102.399 45.055-102.399 102.399s45.057 102.399 102.399 102.399c57.344 0 102.399-45.055 102.399-102.399s-45.053-102.399-102.399-102.399zM774.145 583.168l-20.479-32.768-57.344 36.863-57.346-36.863-24.576 32.768 40.96 28.673-40.96 28.673 24.576 32.768 57.344-36.863 57.344 36.863 24.576-32.768-40.96-28.673 36.865-28.673z" />
<glyph unicode="&#xe910;" glyph-name="bs-babel" d="M402.43 886.698c-30.394-22.348-65.257-44.25-104.143-65.704l0.447-6.704c2.682 0 5.811 1.788 10.28 4.023 4.47 0.447 7.151-1.341 7.151-5.811l7.151 4.023 3.576 0.447 0.447-3.129c0.447-3.129-24.136-22.348-72.856-56.765l4.023-6.257-3.576-0.447-7.598 2.682c0-2.235-3.129-3.576-10.28-4.023l0.447-3.576 8.045-8.939c-2.682 0-6.258 0.447-10.727 2.235-15.644-1.341-31.288-12.962-46.485-34.416l4.023-6.258c13.409 12.068 21.007 18.326 23.242 18.326l0.894-9.833c-2.235 0-5.811-1.788-10.28-4.023l8.492-12.515c16.091 17.432 33.522 32.182 53.189 44.25 9.833-2.682 14.75-5.364 14.75-8.939l7.151 0.447c52.295 38.886 104.143 66.598 155.544 84.030l0.447-6.704c-9.386-14.303-16.091-21.454-19.667-21.901 0.447-4.917 2.235-8.939 4.917-12.962 0.894-8.939-22.348-67.492-69.727-176.552-108.166-252.983-198.453-439.815-271.309-561.39 0-2.235 1.788-5.811 4.023-9.833 17.879 4.47 29.5 8.492 34.416 12.962l4.023 0.447 0.447-6.704 6.704 0.447 7.151 4.023c0-2.235 2.682-3.129 7.151-2.682l0.447-6.705c0.447-6.705-3.129-16.985-11.621-30.841-7.598-8.493-15.197-25.924-23.689-52.295l0.447-3.129 6.704 0.447c29.053 32.629 51.401 64.81 66.598 96.098 85.371 25.030 150.181 49.613 195.324 73.75 45.144 4.023 80.007 15.644 103.249 35.31l-0.447 3.576-16.985-4.917-4.023-0.447-0.447 3.576c33.076 4.917 56.318 12.515 68.833 22.348 64.81 50.060 113.53 85.371 146.605 106.378 102.355 75.090 150.628 147.499 144.817 216.332-0.447 7.151-23.242 35.31-67.492 84.477-0.894 9.386 14.75 22.795 46.038 40.674l88.946 78.219c19.667 25.477 31.735 66.598 35.757 123.363l-1.341 13.409c-3.576 39.78-32.182 71.962-86.711 96.545-32.182 21.901-89.84 33.522-172.976 34.863-68.386-6.257-158.673-30.393-269.521-73.302v0zM881.578 880.887l-2.682-6.704-99.227 41.568c66.151-2.682 100.12-14.303 101.908-34.863v0zM480.202 605.556c6.704 36.651 14.303 57.659 22.795 62.575l74.196 166.719c-0.894 10.28 14.75 18.326 47.378 23.689l10.727 0.894 0.894-9.386c32.182 4.917 51.848 7.598 59.447 8.492 59 4.917 89.393-6.704 92.075-35.757l6.704 0.447-1.341 16.985 7.151 0.447c17.432-9.386 26.818-21.008 27.712-34.863 0.894-9.386-4.023-21.007-15.197-34.863-4.47-0.447-7.151 2.682-7.598 9.386l-7.151-0.447-1.788-20.113c-29.947-44.697-51.401-67.492-64.81-68.833-12.068-16.538-19.667-25.030-22.795-25.477-9.386-11.174-34.863-30.394-76.878-57.212-13.856-1.341-65.257-21.008-154.203-59.893-4.47 2.235-8.939 2.682-14.303 2.235l-0.447 6.258c-0.894 12.962 4.47 29.053 17.432 48.719v0zM890.964 811.161l0.447-6.258c-3.576-0.447-10.28 10.28-20.114 31.735l-0.447 6.258c6.258 0.894 12.962-9.833 20.113-31.735v0zM238.393 731.601l0.447-3.129c-2.235 0-5.811-1.788-10.28-4.023l-3.576-0.447-0.447 6.257 13.856 1.341zM454.278 736.964l0.894-9.833c-3.129-0.447-7.598-4.917-12.962-14.303l-0.447 6.705c6.258 7.598 9.386 13.409 9.386 17.432h3.129zM421.202 667.237l1.341-13.409-3.576-0.447-1.341 13.409 3.576 0.447zM412.71 643.101c-0.894-11.174-3.576-16.985-9.386-17.432l-3.576-0.447c4.023 7.599 6.258 12.962 5.811 16.985l7.151 0.894zM397.96 608.238l0.447-3.129-6.258-10.727-6.704-0.447-0.447 3.129c6.704 0.447 9.833 4.023 9.386 10.727l3.576 0.447zM382.763 576.95l-1.788-16.538-3.576-0.447-1.341 16.538 6.704 0.447zM745.253 564.882l14.75-8.939c0.447-4.47-1.788-7.151-6.258-7.599-6.258 4.023-11.174 5.811-14.75 5.811l-0.894 9.833 7.151 0.894zM461.429 526.89l0.447-6.258-13.856-1.341-0.447 6.258 13.856 1.341zM690.276 503.648c9.833-4.47 14.75-8.939 15.197-12.515l0.447-3.129c-9.386-0.894-17.879 4.023-25.924 14.75l10.28 0.894zM395.278 431.239c40.227 3.576 103.696 22.348 189.961 56.318l21.007 1.788c43.803 3.576 76.431-4.47 97.886-25.030l1.341-13.409c-16.091-46.484-33.97-73.302-53.189-81.795l-89.393-71.068c-66.598-43.803-102.355-65.704-107.719-66.151-105.931-58.553-172.082-88.499-197.559-90.734l-4.023-0.447c3.576 12.515 50.507 109.060 141.688 290.528v0zM491.823 469.231l0.447-3.129-14.303-1.341-0.447 3.129 14.303 1.341zM812.745 483.534l2.235-26.371c-3.129-7.151-6.258-10.727-9.833-10.727l-4.023 46.485c7.598-3.129 11.174-6.258 11.621-9.386v0zM268.787 252.899c-4.47-22.795-9.386-34.417-14.303-34.863l-0.447 3.129c-0.894 11.621 4.023 21.901 14.75 31.735v0zM358.18 126.855c25.924 4.917 96.992 42.462 213.65 111.742l0.447-6.258c0.447-2.682-9.833-11.174-29.947-25.924-59.447-29.053-94.31-49.166-104.59-59.447-64.363-22.348-96.098-36.204-95.651-41.568-57.212-22.795-94.757-39.333-112.636-49.613-4.023-0.447-10.28 1.341-18.326 4.917-0.894 11.621 4.023 21.007 15.644 28.606 9.833 0.894 19.667-0.447 28.606-4.47 10.727 5.364 29.053 11.621 55.424 17.879l-0.447 6.704-21.007-1.788c2.682 3.576 22.795 12.962 61.234 28.606l10.727 0.894 0.447-3.129c-17.879-1.341-28.159-7.151-30.394-16.538 0.447-4.023 2.682-6.257 7.151-5.81 12.962 8.939 19.667 13.856 19.667 15.197v0zM248.226 207.756l0.447-3.129c0.447-4.47-1.788-7.151-6.258-7.598l-0.447 3.129c-0.447 4.023 1.788 6.704 6.258 7.599v0zM415.392 162.165c-8.492-0.894-24.136-7.599-47.825-21.007l-3.576-0.447-0.447 6.704c16.985 1.341 31.735 8.045 43.803 20.114 4.917 0.894 7.598-1.341 8.045-5.364v0zM241.969 113.893l10.727 0.894 0.447-3.576c-2.682 0-5.811-1.788-10.28-4.023l-6.704-0.447c-0.447 3.129 1.341 5.81 5.811 7.151v0zM170.901 74.113l7.598-3.129c-2.682-20.114-8.492-30.394-18.773-31.288-8.045 3.576-15.197 4.917-21.901 4.47l-0.894 9.833c-0.447 4.023 1.788 6.257 6.704 7.598 4.47 0.447 7.151-2.682 7.598-9.386 12.068 14.75 18.773 21.901 19.667 21.901v0z" />
<glyph unicode="&#xe911;" glyph-name="bs-big-data" d="M753.626 713.542c-4.164 22.014-25.656 41.522-64.482 58.532-10.628 4.614-21.722 8.724-33.286 12.334-14.498 4.55-29.742 8.314-45.742 11.286-30.026 5.532-62.692 8.286-98 8.264-35.348 0.022-68.054-2.732-98.118-8.264-15.998-2.972-31.248-6.736-45.742-11.286-11.56-3.61-22.654-7.72-33.286-12.334-38.786-17.008-60.24-36.518-64.364-58.532-0.506-2.832-0.506-5.664 0-8.494 1.376-8.586 5.528-16.77 12.452-24.554 0.074-0.078 0.156-0.156 0.232-0.23 11.48-11.962 28.704-22.978 51.68-33.048v-0.116c15.75-6.87 32.548-12.648 50.394-17.338 37.562-9.76 79.772-14.646 126.632-14.662h0.118c46.884 0.016 89.098 4.942 126.634 14.778 17.862 4.624 34.662 10.364 50.392 17.222v0.116c22.978 10.070 40.2 21.086 51.68 33.048 0.078 0.074 0.16 0.152 0.232 0.23 6.96 7.786 11.152 15.968 12.57 24.554 0.504 2.83 0.504 5.662 0.004 8.494zM512.116 454.402h-0.118c-39.55 0.020-76.054 3.278-109.522 9.776-30.506 5.874-58.476 14.446-83.918 25.714v-0.116c-5.084 2.246-9.93 4.534-14.548 6.864-12.302 6.136-23.088 12.574-32.358 19.318-0.418-1.46-0.768-2.938-1.044-4.424-0.506-2.83-0.506-5.662 0-8.494 1.376-8.584 5.528-16.768 12.452-24.552 0.074-0.080 0.156-0.156 0.232-0.232 11.48-11.96 28.704-22.976 51.68-33.048v-0.114c15.614-6.812 32.258-12.512 49.93-17.11 37.678-9.914 80.044-14.876 127.098-14.894h0.118c47.080 0.020 89.444 4.98 127.098 14.894 17.69 4.606 34.336 10.304 49.93 17.11v0.114c22.978 10.072 40.2 21.086 51.68 33.048 0.078 0.076 0.16 0.152 0.232 0.232 6.96 7.786 11.152 15.968 12.57 24.552 0.5 2.832 0.5 5.664 0 8.494-0.288 1.496-0.63 2.97-1.050 4.424-9.27-6.738-20.054-13.18-32.352-19.318-4.62-2.33-9.47-4.618-14.548-6.864v0.116c-25.484-11.27-53.494-19.842-84.038-25.714-33.47-6.5-69.974-9.758-109.524-9.776zM639.212 385.398c-5.76-1.336-11.618-2.578-17.576-3.726v-77.382c24.318 5.172 46.824 12.274 67.506 21.296v0.118c12.016 5.226 22.374 10.696 31.080 16.406l-0.12 71.914c-4.574-2.234-9.388-4.442-14.43-6.632v-0.234c-0.492-0.21-0.992-0.402-1.514-0.578-20.076-8.682-41.722-15.744-64.946-21.182zM705.674 609.166c-0.578-0.252-1.16-0.484-1.746-0.7-20.16-8.684-41.882-15.742-65.178-21.178-5.612-1.29-11.316-2.492-17.114-3.608v-77.382c24.318 5.172 46.824 12.27 67.506 21.296v0.116c12.016 5.226 22.374 10.698 31.080 16.406l-0.12 71.914c-4.574-2.234-9.388-4.446-14.43-6.634v-0.23zM794.71 717.5c0.060-0.622 0.096-1.282 0.116-1.978v-131.028c-0.010-0.718-0.046-1.418-0.116-2.092-0.196-1.278-0.39-2.634-0.582-4.074-0.032-0.316-0.072-0.668-0.118-1.046-1.188-9.868-4.482-19.292-9.892-28.278 6.39-10.594 9.924-21.766 10.592-33.512 0.060-0.62 0.096-1.28 0.116-1.978v-131.024c-0.010-0.722-0.046-1.418-0.116-2.094-0.196-1.278-0.39-2.636-0.582-4.074-0.032-0.316-0.072-0.668-0.118-1.046-1.182-9.824-4.442-19.21-9.776-28.16 6.32-10.558 9.812-21.692 10.474-33.394 0.060-0.622 0.096-1.286 0.116-1.98v-131.024c-0.010-0.722-0.046-1.418-0.116-2.098-0.196-1.274-0.39-2.632-0.582-4.070-0.032-0.32-0.072-0.664-0.118-1.046-3.736-31.074-28.334-57.954-73.79-80.64-4.62-2.332-9.47-4.618-14.548-6.864v0.114c-25.484-11.27-53.494-19.84-84.038-25.714-33.466-6.496-69.97-9.754-109.522-9.778h-0.118c-39.55 0.024-76.054 3.282-109.522 9.778-30.506 5.876-58.476 14.446-83.918 25.714v-0.114c-5.084 2.246-9.93 4.532-14.548 6.864-45.496 22.688-70.134 49.566-73.908 80.64-0.044 0.382-0.086 0.726-0.118 1.046-0.154 1.438-0.31 2.796-0.464 4.070-0.11 0.68-0.186 1.376-0.23 2.098v131.024c0.054 0.696 0.13 1.36 0.23 1.98 0.646 11.696 4.138 22.79 10.476 33.282-5.402 9.016-8.7 18.446-9.894 28.274-0.044 0.378-0.086 0.73-0.118 1.046-0.154 1.438-0.31 2.796-0.464 4.074-0.11 0.676-0.186 1.372-0.23 2.094v131.024c0.054 0.7 0.13 1.36 0.23 1.978 0.646 11.736 4.138 22.87 10.476 33.396-5.398 9.052-8.694 18.516-9.894 28.392-0.044 0.378-0.086 0.73-0.118 1.046-0.154 1.44-0.31 2.796-0.464 4.074-0.11 0.674-0.186 1.374-0.23 2.092v131.026c0.054 0.698 0.13 1.358 0.23 1.978 1.382 24.994 15.696 47.296 42.948 66.908 5.396 3.866 11.292 7.63 17.696 11.286 8.56 4.882 18.026 9.576 28.396 14.082v-0.118c53.394 23.68 117.912 35.548 193.556 35.61 75.64-0.062 140.16-11.93 193.558-35.61v0.118c10.372-4.506 19.836-9.2 28.396-14.082 6.362-3.656 12.22-7.42 17.576-11.286 27.296-19.61 41.652-41.912 43.070-66.906zM304.010 616.030v-71.914c8.666-5.708 18.986-11.18 30.96-16.406v-0.116c20.688-9.028 43.188-16.126 67.506-21.296v77.382c-5.794 1.116-11.498 2.32-17.112 3.608-23.256 5.428-44.944 12.488-65.060 21.178-0.586 0.214-1.168 0.448-1.746 0.7v0.23c-5.084 2.188-9.932 4.4-14.548 6.634zM304.010 414.024v-71.914c8.666-5.71 18.986-11.18 30.96-16.406v-0.118c20.688-9.024 43.188-16.126 67.506-21.296v77.382c-5.956 1.148-11.814 2.39-17.576 3.726-23.188 5.434-44.796 12.492-64.828 21.18-0.524 0.176-1.028 0.368-1.514 0.578v0.234c-5.084 2.192-9.932 4.4-14.548 6.634zM270.608 301.266c1.376-8.586 5.528-16.766 12.452-24.55 0.074-0.078 0.156-0.16 0.232-0.234 11.48-11.964 28.704-22.976 51.68-33.042v-0.122c48.876-21.308 107.884-31.976 177.028-32h0.118c69.144 0.024 128.152 10.692 177.028 32v0.122c22.978 10.066 40.2 21.078 51.68 33.042 0.078 0.074 0.16 0.156 0.232 0.234 6.96 7.786 11.152 15.964 12.57 24.55 0.5 2.832 0.5 5.66 0 8.496-0.274 1.43-0.624 2.864-1.050 4.304-9.246-6.804-20.032-13.286-32.352-19.43-4.62-2.332-9.47-4.622-14.548-6.872v0.122c-25.484-11.27-53.494-19.844-84.038-25.718-33.466-6.496-69.97-9.754-109.522-9.774h-0.118c-39.55 0.020-76.054 3.278-109.522 9.774-30.506 5.876-58.476 14.45-83.918 25.718v-0.122c-5.084 2.25-9.93 4.54-14.548 6.872-12.326 6.144-23.116 12.582-32.358 19.312-0.432-1.368-0.778-2.77-1.044-4.188-0.508-2.834-0.508-5.662-0.002-8.494zM318.558 205.618c-5.084 2.188-9.934 4.402-14.548 6.632v-71.914c8.666-5.71 18.986-11.184 30.96-16.41v-0.114c20.688-9.028 43.188-16.122 67.506-21.292v77.378c-30.496 5.882-58.47 14.376-83.918 25.484v0.236zM720.104 212.25c-4.574-2.23-9.388-4.446-14.43-6.632v-0.234c-25.488-11.11-53.498-19.602-84.038-25.484v-77.378c24.318 5.172 46.824 12.266 67.506 21.292v0.114c12.016 5.226 22.374 10.7 31.080 16.41l-0.118 71.912zM673.43 540.858c-5.464-1.096-10.198-0.048-14.2 3.142-3.87 3.082-5.81 7.348-5.818 12.8 0.008 5.464 1.95 10.586 5.818 15.358 4.002 4.656 8.734 7.526 14.2 8.612 5.42 1.122 10.034 0.15 13.854-2.908 4.014-3.212 6.034-7.556 6.050-13.032-0.018-5.48-2.038-10.562-6.050-15.246-3.822-4.746-8.434-7.654-13.854-8.726zM659.23 370.152c4.002 4.656 8.734 7.528 14.2 8.61 5.42 1.126 10.034 0.156 13.854-2.906 4.014-3.21 6.034-7.554 6.050-13.036-0.018-5.476-2.038-10.558-6.050-15.238-3.82-4.746-8.434-7.656-13.854-8.726-5.464-1.102-10.198-0.050-14.2 3.14-3.87 3.082-5.81 7.348-5.818 12.796 0.008 5.47 1.95 10.59 5.818 15.36zM653.412 152.786c0.008 5.468 1.95 10.586 5.818 15.36 4.002 4.656 8.734 7.528 14.2 8.614 5.42 1.118 10.034 0.152 13.854-2.91 4.014-3.21 6.034-7.558 6.050-13.032-0.018-5.48-2.038-10.562-6.050-15.242-3.82-4.746-8.434-7.656-13.854-8.73-5.464-1.094-10.198-0.042-14.2 3.14-3.868 3.088-5.81 7.35-5.818 12.8z" />
<glyph unicode="&#xe912;" glyph-name="bs-blogger" d="M697.349-64c178.563 0 323.556 145.469 324.509 323.080l1.905 261.416-3.095 14.285-8.571 17.856-14.523 11.19c-18.809 14.761-114.28-0.952-139.993 22.38-18.332 16.666-21.189 46.664-26.665 87.615-10.238 79.044-16.666 83.091-29.046 109.995-44.522 94.757-166.659 166.421-250.465 176.182h-226.894c-178.563 0-324.509-145.708-324.509-323.556v-377.363c0-177.611 145.946-323.080 324.509-323.080h372.84zM328.794 695.727h179.992c34.284 0 62.14-27.856 62.14-61.902 0-33.808-27.856-61.902-62.14-61.902h-179.992c-34.284 0-62.14 28.094-62.14 61.902 0 34.046 27.618 61.902 62.14 61.902zM266.654 263.842c0 33.808 27.856 61.664 62.14 61.664h365.697c34.046 0 61.902-27.618 61.902-61.664 0-33.332-27.618-61.664-61.902-61.664h-365.697c-34.522 0-62.14 28.094-62.14 61.664z" />
<glyph unicode="&#xe913;" glyph-name="bs-books" d="M960 448v-512h-512c-70.688 0-128 57.312-128 128v448c0 70.688 57.312 128 128 128h448v-128h-64v64h-384c-35.344 0-64-28.626-64-64s28.656-64 64-64h512zM256 512c0 105.876 86.126 192 192 192h256v64h-512c-35.344 0-64 28.626-64 64s28.656 64 64 64h384v-64h64v128h-448c-70.688 0-128-57.312-128-128v-448c0-70.688 57.312-128 128-128h64v256z" />
<glyph unicode="&#xe914;" glyph-name="bs-calendar" d="M128.001 799.997v128.003c0 17.69 14.311 32 32.004 32 17.685 0 31.996-14.311 31.996-32v-128.003c0-17.685-14.311-31.996-31.996-31.996-17.694-0.002-32.004 14.311-32.004 31.996zM672.008 767.998c17.681 0 32 14.311 32 31.996v128.005c0 17.69-14.319 32-32 32-17.69 0-32.011-14.311-32.011-32v-128.003c0-17.685 14.321-31.998 32.011-31.998zM1024 192.006c0-141.39-114.621-256.008-256-256.008-141.368 0-255.998 114.619-255.998 256.008 0 141.368 114.627 255.994 255.998 255.994 141.379 0 256-114.623 256-255.994zM960.008 192.006c0 105.861-86.126 191.997-192.006 191.997-105.871 0-191.997-86.135-191.997-191.997 0-105.882 86.126-192.006 191.997-192.006 105.88 0 192.006 86.124 192.006 192.006zM256.004 575.999h-128.003v-127.999h128.003v127.999zM128.001 255.998h128.003v128.005h-128.003v-128.005zM320.001 448h128.005v127.999h-128.005v-127.999zM320.001 255.998h128.005v128.005h-128.005v-128.005zM64.005 198.369v441.632h703.997v-128.003h64.003v249.622c0 38.876-31.006 70.38-69.312 70.38h-26.69v-32.007c0-35.246-28.693-63.998-63.992-63.998-35.309 0-64.001 28.752-64.001 63.998v32.007h-384.010v-32.007c0-35.246-28.687-63.998-63.992-63.998-35.314 0-64.003 28.752-64.003 63.998v32.007h-26.659c-38.308 0-69.344-31.504-69.344-70.38v-563.254c0-38.747 31.036-70.374 69.344-70.374h378.66v64.011h-378.66c-2.9 0.002-5.341 2.997-5.341 6.365zM639.997 448v127.999h-127.993v-127.999h127.993zM864.003 192.006h-96.003v96.003c0 17.679-14.311 31.99-32 31.99s-31.992-14.311-31.992-31.99v-128.014c0-17.681 14.302-32 31.992-32h128.003c17.69 0 32 14.319 32 32 0 17.69-14.311 32.011-32 32.011z" />
<glyph unicode="&#xe915;" glyph-name="bs-camara" d="M832 96h-640c-53.019 0-96 42.981-96 96v0 384c0 53.019 42.981 96 96 96v0h135.040l13.76 55.36c10.812 42.058 48.392 72.64 93.115 72.64 0.002 0 0.004 0 0.006 0h156.16c0.002 0 0.004 0 0.005 0 44.723 0 82.303-30.582 92.969-71.974l0.146-0.666 13.76-55.36h135.040c53.019 0 96-42.981 96-96v0-384c0-53.019-42.981-96-96-96v0zM192 608c-17.673 0-32-14.327-32-32v0-384c0-17.673 14.327-32 32-32v0h640c17.673 0 32 14.327 32 32v0 384c0 17.673-14.327 32-32 32v0h-160c-0.278-0.009-0.604-0.014-0.932-0.014-14.951 0-27.507 10.254-31.021 24.112l-0.048 0.221-19.84 79.68c-3.674 13.92-16.152 24.016-30.988 24.016-0.356 0-0.71-0.006-1.063-0.017l0.051 0.001h-154.24c-0.302 0.010-0.656 0.016-1.012 0.016-14.836 0-27.314-10.096-30.938-23.793l-17.97-79.903c-3.561-14.080-16.117-24.334-31.068-24.334-0.328 0-0.654 0.005-0.98 0.015l0.048-0.001zM512 224c-88.366 0-160 71.634-160 160s71.634 160 160 160c88.366 0 160-71.634 160-160v0c0-88.366-71.634-160-160-160v0zM512 480c-53.019 0-96-42.981-96-96s42.981-96 96-96c53.019 0 96 42.981 96 96v0c0 53.019-42.981 96-96 96v0zM768 480h-32c-17.673 0-32 14.327-32 32s14.327 32 32 32v0h32c17.673 0 32-14.327 32-32s-14.327-32-32-32v0z" />
<glyph unicode="&#xe916;" glyph-name="bs-cancel" d="M0 82.286l146.286-146.286 365.714 365.714 365.714-365.714 146.286 146.286-365.714 365.714 365.714 365.714-146.286 146.286-365.714-365.714-365.714 365.714-146.286-146.286 365.714-365.714-365.714-365.714z" />
<glyph unicode="&#xe917;" glyph-name="bs-check" d="M387.277-64c-31.832 0-61.937 14.892-81.291 40.433l-261.383 345.19c-33.997 44.895-25.147 108.822 19.749 142.833 44.968 34.026 108.851 25.117 142.863-19.749l171.915-227.006 432.377 694.243c29.769 47.762 92.628 62.376 140.493 32.651 47.806-29.755 62.405-92.657 32.622-140.464l-510.771-820.078c-17.744-28.511-48.377-46.446-81.92-47.967-1.565-0.059-3.101-0.088-4.652-0.088z" />
<glyph unicode="&#xe918;" glyph-name="bs-check-2" d="M848.996 858.946l-471.819-471.883-202.236 202.363-174.941-175.068 377.176-377.303 646.824 646.824-175.004 175.068z" />
<glyph unicode="&#xe919;" glyph-name="bs-check-box" d="M910.222 960h-796.444c-62.578 0-113.778-51.2-113.778-113.778v-796.444c0-62.578 51.2-113.778 113.778-113.778h796.444c62.578 0 113.778 51.2 113.778 113.778v796.444c0 62.578-51.2 113.778-113.778 113.778zM398.222 163.556l-284.444 284.444 79.644 79.644 204.8-204.8 432.356 432.356 79.644-79.644-512-512z" />
<glyph unicode="&#xe91a;" glyph-name="bs-checkbox-em" d="M910.222 846.222v-796.444h-796.444v796.444h796.444zM910.222 960h-796.444c-62.578 0-113.778-51.2-113.778-113.778v-796.444c0-62.578 51.2-113.778 113.778-113.778h796.444c62.578 0 113.778 51.2 113.778 113.778v796.444c0 62.578-51.2 113.778-113.778 113.778v0z" />
<glyph unicode="&#xe91b;" glyph-name="bs-check-place" d="M238.87 625.364l93.526 93.526 87.125-87.082c6.059-6.059 15.958-6.059 22.015 0l326.913 326.869 94.208-92.842-421.121-421.078c-6.059-6.059-15.958-6.059-22.015 0l-180.65 180.608zM708.332 651.221c2.431-12.501 3.883-25.386 3.883-38.613 0-112.384-91.137-203.478-203.52-203.478-13.44 0-26.538 1.45-39.253 3.968-10.709-9.814-24.278-15.574-38.997-15.574-15.616 0-30.209 6.059-41.173 17.024l-210.732 210.817 153.855 153.855 28.033-28.033c37.163 39.723 89.642 64.938 148.31 64.938 17.323 0 33.835-2.816 49.877-6.912l111.105 111.061c-48.129 25.263-102.871 39.727-160.982 39.727-191.83 0-347.392-155.562-347.392-347.392 0-122.24 63.146-229.632 158.549-291.5l188.843-385.11 188.886 385.152c95.36 61.867 158.506 169.259 158.506 291.456 0 54.315-12.843 105.514-35.072 151.296l-112.726-112.682z" />
<glyph unicode="&#xe91c;" glyph-name="bs-chrome" d="M258.287 513.434l-146.534 253.815c93.833 117.453 238.251 192.717 400.247 192.717 187.46 0 351.334-100.727 440.525-251.017h-417.724c-7.543 0.683-15.121 1.024-22.801 1.024-121.856 0-224.563-83.627-253.713-196.54zM695.33 634.982h293.478c22.733-57.958 35.191-121.003 35.191-187.017 0-280.815-226.065-508.791-506.163-511.932l209.374 362.667c29.525 42.394 46.797 93.867 46.797 149.265 0 73.216-30.14 139.435-78.677 187.017zM326.007 447.966c0 102.571 83.456 185.993 185.993 185.993 102.605 0 185.993-83.422 185.993-185.993 0-102.537-83.388-185.993-185.993-185.993-102.537 0-185.993 83.456-185.993 185.993zM582.212 195.55l-146.603-253.918c-246.545 36.932-435.61 249.549-435.61 506.334 0 91.238 23.893 176.879 65.741 251.017l208.998-362.018c41.882-89.122 132.471-151.006 237.261-151.006 24.337 0 47.855 3.345 70.212 9.591z" />
<glyph unicode="&#xe91d;" glyph-name="bs-circle-graph" d="M978.4 420.4c-10.8 0.8-20.4-6.8-21.6-17.6-23.2-228.8-214.4-401.6-444.8-401.6-246.4 0-447.2 200.4-447.2 447.2 0 230.4 172.8 421.6 401.6 444.8 10.8 1.2 18.8 10.8 17.6 21.6s-10.8 18.8-21.6 17.6c-248.8-25.6-436.8-233.6-436.8-484.4 0-268 218.4-486.4 486.4-486.4 250.8 0 458.8 188 484 436.8 1.2 11.2-6.8 20.8-17.6 22zM996 497.6c-23.2 228.8-205.6 411.2-434.4 434.4l-21.6 2.4v-458.4h458.4l-2.4 21.6zM579.2 515.2v374.8c192.8-29.2 345.6-182 374.8-374.8h-374.8zM422.8 767.2c7.6 7.6 8 20 0.4 28-7.6 7.6-20 8-28 0.4l-228-223.6c-7.6-7.6-8-20-0.4-28 4-4 8.8-6 14-6 4.8 0 10 2 13.6 5.6l228.4 223.6zM202 269.6c4.8 0 10 2 13.6 5.6l239.6 234.8c7.6 7.6 8 20 0.4 28-7.6 7.6-20 8-28 0.4l-239.6-234.8c-7.6-7.6-8-20-0.4-28 4-4 9.2-6 14.4-6zM346.4 122c4.8 0 10 2 13.6 5.6l241.2 236c7.6 7.6 8 20 0.4 28-7.6 7.6-20 8-28 0.4l-241.2-236c-7.6-7.6-8-20-0.4-28 4.4-4 9.2-6 14.4-6zM614.4 94.8c4.8 0 10 2 13.6 5.6l228.8 224c7.6 7.6 8 20 0.4 28-7.6 7.6-20 8-28 0.4l-228.8-224c-7.6-7.6-8-20-0.4-28 4.4-4 9.2-6 14.4-6z" />
<glyph unicode="&#xe91e;" glyph-name="bs-clock" d="M512.002 960c-282.75 0-512-229.25-512-512 0-282.745 229.25-512 512-512s511.996 229.257 511.996 512c0.002 282.75-229.246 512-511.996 512zM544.004 1.626v62.378h-64.003v-62.378c-221.436 15.739-398.622 192.932-414.372 414.368h62.371v64.003h-62.371c15.75 221.442 192.937 398.628 414.372 414.378v-62.371h64.003v62.369c221.438-15.748 398.62-192.937 414.368-414.378h-62.367v-64.003h62.367c-15.75-221.433-192.932-398.626-414.368-414.366zM747.565 584.002c4.373-7.629 1.752-17.445-5.871-21.881l-169.028-97.558c1.458-5.439 3.339-10.691 3.339-16.563 0-35.375-28.662-63.996-64.001-63.996-35.349 0-64.003 28.621-64.003 63.996l-173.685 100.251c-15.315 8.87-20.562 28.436-11.721 43.747 8.809 15.374 28.404 20.621 43.717 11.744l174.69-100.874c9.309 5.249 19.498 9.125 31.002 9.125 17.877 0 33.961-7.374 45.593-19.251l168.091 97.13c7.505 4.44 17.314 1.815 21.877-5.871z" />
<glyph unicode="&#xe91f;" glyph-name="bs-cloud-cancel" d="M799.104 566.784c-11.648 148.192-135.968 265.216-287.104 265.216-129.28 0-240.256-83.968-276.064-206.432-102.144-35.456-171.936-132.224-171.936-241.568 0-141.152 114.848-256 256-256h416c123.52 0 224 100.48 224 224 0 100.768-66.24 187.264-160.896 214.784zM630.624 342.624c12.512-12.512 12.512-32.736 0-45.248s-32.736-12.512-45.248 0l-73.376 73.376-73.376-73.376c-12.512-12.512-32.736-12.512-45.248 0s-12.512 32.736 0 45.248l73.376 73.376-73.376 73.376c-12.512 12.512-12.512 32.736 0 45.248s32.736 12.512 45.248 0l73.376-73.376 73.376 73.376c12.512 12.512 32.736 12.512 45.248 0s12.512-32.736 0-45.248l-73.376-73.376 73.376-73.376z" />
<glyph unicode="&#xe920;" glyph-name="bs-cloud-check" d="M799.104 566.784c-11.648 148.192-135.968 265.216-287.104 265.216-129.28 0-240.256-83.968-276.096-206.432-102.112-35.456-171.904-132.224-171.904-241.568 0-141.152 114.848-256 256-256h416c123.488 0 224 100.48 224 224 0 100.768-66.24 187.264-160.896 214.784zM662.624 489.376l-160-160c-6.24-6.24-14.432-9.376-22.624-9.376s-16.384 3.136-22.624 9.376l-96 96c-12.512 12.512-12.512 32.736 0 45.248s32.736 12.512 45.248 0l73.376-73.376 137.376 137.376c12.512 12.512 32.736 12.512 45.248 0s12.512-32.736 0-45.248z" />
<glyph unicode="&#xe921;" glyph-name="bs-cloud-download" d="M799.104 566.784c-11.648 148.192-135.968 265.216-287.104 265.216-129.28 0-240.256-83.968-276.064-206.432-102.144-35.456-171.936-132.224-171.936-241.568 0-141.152 114.848-256 256-256h416c123.52 0 224 100.48 224 224 0 100.768-66.24 187.264-160.896 214.784zM662.624 393.376l-128-128c-6.24-6.24-14.432-9.376-22.624-9.376s-16.384 3.136-22.624 9.376l-128 128c-9.152 9.152-11.904 22.912-6.944 34.88 4.96 11.936 16.64 19.744 29.568 19.744h64v128c0 35.328 28.672 64 64 64s64-28.672 64-64v-128h64c12.928 0 24.608-7.808 29.568-19.744 4.96-11.968 2.208-25.728-6.944-34.88z" />
<glyph unicode="&#xe922;" glyph-name="bs-cloud-refresh" d="M799.104 566.784c-11.648 148.192-135.968 265.216-287.104 265.216-129.28 0-240.256-83.968-276.096-206.432-102.112-35.456-171.904-132.224-171.904-241.568 0-141.152 114.848-256 256-256h416c123.488 0 224 100.512 224 224 0 100.768-66.24 187.264-160.896 214.784zM649.376 329.376l-64 64c-9.152 9.152-11.904 22.912-6.944 34.88 4.928 11.936 16.64 19.744 29.568 19.744h27.456c-14.304 55.040-63.968 96-123.456 96-17.856 0-35.104-3.584-51.264-10.656-16.256-7.040-35.072 0.32-42.144 16.48-7.104 16.192 0.288 35.072 16.48 42.144 24.288 10.624 50.208 16.032 76.928 16.032 94.944 0 173.792-69.344 189.12-160h34.88c12.928 0 24.64-7.808 29.568-19.744 4.96-11.968 2.208-25.728-6.944-34.88l-64-64c-6.24-6.24-14.432-9.376-22.624-9.376s-16.384 3.136-22.624 9.376zM265.376 438.624l64 64c12.512 12.512 32.736 12.512 45.248 0l64-64c9.152-9.152 11.904-22.912 6.944-34.88-4.928-11.968-16.64-19.744-29.568-19.744h-27.456c14.304-55.072 63.968-96 123.456-96 17.792 0 35.008 3.584 51.168 10.624 16.16 7.168 35.040-0.352 42.112-16.512 7.104-16.192-0.32-35.072-16.512-42.112-24.256-10.624-50.112-16-76.768-16-94.944 0-173.792 69.344-189.12 160h-34.88c-12.928 0-24.64 7.776-29.568 19.744-4.96 11.968-2.208 25.728 6.944 34.88z" />
<glyph unicode="&#xe923;" glyph-name="bs-cloud-upload" d="M799.104 566.784c-11.648 148.192-135.968 265.216-287.104 265.216-129.28 0-240.256-83.968-276.064-206.432-102.144-35.456-171.936-132.224-171.936-241.568 0-141.152 114.848-256 256-256h416c123.52 0 224 100.48 224 224 0 100.768-66.24 187.264-160.896 214.784zM669.568 467.744c-4.96-11.936-16.64-19.744-29.568-19.744h-64v-128c0-35.328-28.672-64-64-64s-64 28.672-64 64v128h-64c-12.928 0-24.608 7.808-29.568 19.744-4.96 11.968-2.208 25.728 6.944 34.88l128 128c6.24 6.24 14.432 9.376 22.624 9.376s16.384-3.136 22.624-9.376l128-128c9.152-9.152 11.904-22.912 6.944-34.88z" />
<glyph unicode="&#xe924;" glyph-name="bs-code" d="M1003.503 497.626l-185.247 185.397c-13.258 13.258-30.872 20.56-49.61 20.56-18.705 0-36.307-7.282-49.572-20.515-27.33-27.323-27.343-71.834-0.013-99.214l135.668-135.805-135.661-135.712c-13.265-13.272-20.559-30.912-20.545-49.674 0.012-18.725 7.312-36.32 20.552-49.517 13.252-13.252 30.86-20.545 49.592-20.545 18.743 0 36.357 7.293 49.592 20.545l185.247 185.31c27.328 27.342 27.328 71.832-0.002 99.169zM985.669 416.274l-185.247-185.31c-8.48-8.486-19.759-13.16-31.756-13.16s-23.276 4.673-31.767 13.173c-8.48 8.455-13.145 19.705-13.158 31.699-0.013 12.010 4.665 23.314 13.163 31.818l144.563 144.628c4.924 4.924 4.924 12.905 0.007 17.823l-144.563 144.715c-17.507 17.545-17.513 46.067-0.018 63.555 8.498 8.473 19.777 13.14 31.756 13.14 11.997 0 23.283-4.678 31.774-13.17l185.247-185.399c17.502-17.503 17.502-45.993 0-63.511zM325.479 262.655c0.012 18.755-7.275 36.389-20.547 49.674l-135.655 135.712 135.68 135.819c27.312 27.38 27.293 71.884-0.057 99.227-13.252 13.213-30.849 20.49-49.547 20.49-18.736 0-36.359-7.3-49.617-20.56l-185.24-185.379c-27.33-27.348-27.33-71.846 0.007-99.189l185.228-185.29c13.247-13.265 30.867-20.565 49.604-20.565s36.345 7.287 49.56 20.52c13.258 13.215 20.572 30.81 20.584 49.542zM287.073 230.957c-8.466-8.48-19.739-13.146-31.737-13.146s-23.283 4.673-31.769 13.17l-185.227 185.294c-17.508 17.513-17.508 46.015 0 63.53l185.233 185.386c8.498 8.491 19.784 13.17 31.781 13.17 11.978 0 23.251-4.66 31.731-13.113 17.513-17.507 17.52-46.030 0.025-63.568l-144.576-144.722c-4.918-4.918-4.918-12.897 0.007-17.823l144.563-144.621c8.498-8.51 13.176-19.814 13.163-31.826-0.017-11.997-4.688-23.256-13.193-31.729zM687.571 920.238c-7.908 2.945-16.158 4.439-24.537 4.439-29.172 0-55.555-18.383-65.663-45.734l-302.172-812.991c-6.556-17.572-5.87-36.643 1.949-53.716 7.81-17.052 21.775-30.016 39.29-36.477 7.906-2.945 16.151-4.437 24.506-4.437 29.14 0 55.562 18.375 65.763 45.739l302.208 813.086c13.402 36.29-5.157 76.708-41.345 90.092zM705.26 838.911l-302.192-813.048c-6.537-17.533-23.465-29.316-42.126-29.316-5.339 0-10.623 0.96-15.73 2.863-11.209 4.145-20.137 12.435-25.135 23.339-5.006 10.924-5.448 23.137-1.236 34.404l302.177 813.028c6.469 17.513 23.353 29.279 42.014 29.279 5.364 0 10.647-0.959 15.755-2.863 23.182-8.568 35.060-34.461 26.473-57.687z" />
<glyph unicode="&#xe925;" glyph-name="bs-code-2" d="M638.469 821.8l-34.702 9.513c-4.467 1.49-8.867 1.021-13.145-1.401-4.292-2.424-7.191-6.064-8.681-10.913l-208.72-722.405c-1.49-4.851-1.023-9.425 1.401-13.71 2.424-4.292 6.056-7.183 10.913-8.673l34.693-9.517c4.476-1.501 8.861-1.031 13.151 1.395 4.292 2.436 7.185 6.064 8.673 10.905l208.726 722.417c1.488 4.849 1.025 9.423-1.403 13.718-2.426 4.292-6.054 7.183-10.905 8.671zM325.675 680.779c0 4.849-1.868 9.143-5.598 12.871l-27.982 27.98c-3.73 3.73-8.022 5.6-12.871 5.6s-9.143-1.872-12.871-5.6l-260.756-260.756c-3.736-3.73-5.598-8.022-5.598-12.871s1.868-9.141 5.598-12.869l260.754-260.756c3.728-3.736 8.014-5.594 12.871-5.594s9.143 1.864 12.871 5.594l27.982 27.964c3.73 3.728 5.598 8.022 5.598 12.877 0 4.843-1.868 9.135-5.598 12.863l-219.909 219.921 219.911 219.906c3.736 3.728 5.598 8.022 5.598 12.871zM1018.404 460.88l-260.762 260.756c-3.728 3.728-8.022 5.6-12.863 5.6-4.857 0-9.135-1.872-12.877-5.6l-27.97-27.978c-3.728-3.73-5.588-8.016-5.588-12.871s1.858-9.143 5.588-12.871l219.915-219.911-219.915-219.923c-3.728-3.728-5.588-8.022-5.588-12.863 0-4.857 1.858-9.149 5.588-12.877l27.97-27.964c3.741-3.736 8.022-5.594 12.877-5.594 4.843 0 9.135 1.864 12.863 5.594l260.762 260.754c3.73 3.728 5.594 8.028 5.594 12.877 0 4.851-1.864 9.143-5.594 12.871z" />
<glyph unicode="&#xe926;" glyph-name="bs-code-csharp" d="M490.667 278.613l17.493-104.107c-11.093-5.973-29.013-11.52-52.907-16.64-24.32-5.547-52.907-8.533-85.76-8.533-94.293 1.707-165.12 29.867-212.48 83.627-47.787 54.187-71.68 122.88-71.68 206.080 2.133 98.56 30.72 174.080 85.333 226.987 56.32 53.333 126.293 80.64 210.773 80.64 32 0 59.733-2.987 82.773-8.107s40.107-10.667 51.2-17.067l-24.747-106.24-45.227 14.507c-17.067 4.267-36.693 6.4-59.307 6.4-49.493 0.427-90.453-15.36-122.453-46.933-32.427-31.147-49.067-78.933-50.347-142.507 0-58.027 15.787-103.253 46.080-136.533 30.293-32.853 72.96-49.92 127.573-50.347l56.747 5.12c18.347 3.413 33.707 8.107 46.933 13.653zM592.64 149.333l26.027 170.667h-64l14.507 85.333h64l13.653 85.333h-64l14.507 85.333h64l26.027 170.667h85.333l-26.027-170.667h42.667l26.027 170.667h85.333l-26.027-170.667h64l-14.507-85.333h-64l-13.653-85.333h64l-14.507-85.333h-64l-26.027-170.667h-85.333l26.027 170.667h-42.667l-26.027-170.667h-85.333zM718.507 405.333h42.667l13.653 85.333h-42.667l-13.653-85.333z" />
<glyph unicode="&#xe927;" glyph-name="bs-code-java" d="M392.738 162.543l43.93 25.805-49.084-13.653c-37.205-10.411-54.852-24.405-52.531-41.54 4.13-30.14 76.732-53.726 165.274-53.726 44.544 0 111.787 6.076 179.678 35.191l14.95 6.417-15.189 5.871c-30.891 12.015-53.385 26.010-53.623 26.146l-2.185 1.399-2.526-0.478c-53.931-10.274-88.542-14.199-123.426-14.199-22.801 0-46.933 1.604-80.759 5.461-29.525 3.482-32.188 9.455-32.222 9.523-0.171 1.297 3.584 5.291 7.714 7.782zM473.873-16.452c194.219 0 366.217 36.932 375.637 80.589 1.741 8.055-0.785 19.661-22.665 29.525l-42.462 19.149 35.465-30.276c0.068 0 5.222-4.54 4.164-9.523-0.683-3.277-5.222-11.81-32.836-20.139-57.276-17.34-185.754-29.457-312.457-29.457-118.238 0-209.34 10.138-249.993 27.853-5.052 2.185-6.144 3.857-6.246 3.857 1.229 6.212 31.573 19.456 57.037 24.917 15.838 3.413 26.522 3.789 30.413 3.789l25.532-1.536-19.183 13.483c-6.485 4.608-16.452 6.929-29.662 6.929-48.435 0-137.728-31.949-140.254-63.386-1.98-24.474 41.199-31.471 55.398-33.724 90.112-14.677 181.623-22.050 272.111-22.050v0zM402.466 296.516l-39.014-12.937c-41.745-13.858-60.655-29.013-57.856-46.217 5.257-32.734 91.785-47.411 175.241-47.411 72.397 0 149.129 10.786 216.064 30.345l19.763 5.803-19.422 6.861c-23.211 8.124-38.298 23.279-38.468 23.415l-2.492 2.526-3.482-0.683c-65.707-12.663-117.623-18.33-168.448-18.33-28.467 0-57.958 1.741-95.642 5.666-26.658 2.731-29.764 9.25-30.14 10.547-1.126 4.198 5.598 11.878 10.923 15.872l32.973 24.542c13.585-0.341 24.474-0.41 30.618-0.41 97.382 0 190.737 9.796 256.102 27.068l2.082 0.922c18.295 12.459 44.1 23.586 44.373 23.723l53.111 22.801-56.9-10.138c-0.717-0.205-75.776-13.517-149.436-19.729-17.476-1.468-35.157-2.594-52.77-3.55l27.136 13.995c2.833 1.399 69.495 36.386 82.159 88.508 5.222 21.504 0.58 42.633-13.858 62.976l-6.656 9.284c-21.163 29.355-37.854 52.565-32.29 78.541 7.578 35.362 57.412 78.131 161.587 138.581l40.619 23.552-45.568-11.366c-7.748-1.946-190.020-48.606-222.31-150.903-13.141-41.643 0.614-86.255 40.858-132.642 12.322-14.234 17.954-29.252 16.691-44.612-2.389-29.082-28.262-50.722-28.535-50.927l-31.061-25.668c-70.997-3.584-138.377-3.209-173.978 1.604-29.013 3.857-33.348 8.397-33.553 8.465 2.833 8.124 47.753 25.054 98.338 37.069l42.359 10.069-43.452 3.072c0 0-2.56 0.205-7.305 0.205-22.357 0-82.022-3.652-152.747-37.854-6.144-2.935-24.747-11.947-21.538-25.873 6.622-28.74 116.975-35.328 175.923-36.762zM745.472 384.341l-11.025-17.271 19.081 7.612c0.068 0 6.417 2.458 20.275 5.393 23.381 4.813 56.627-9.011 64-39.117 4.574-18.671 3.106-68.267-108.578-126.259l-2.185-1.502-0.956-2.082c-0.171-0.41-0.887-1.263-1.468-1.809l-42.667-24.542 48.265 12.663c128.887 33.86 168.516 94.993 162.611 140.937-5.086 39.39-42.018 68.062-87.859 68.062-13.244 0-26.726-2.389-40.141-7.134-12.527-4.369-19.081-14.507-19.354-14.95zM517.018 387.072l23.108-20.855-12.595 28.467c-8.602 19.456-21.948 38.502-34.85 56.866-44.783 63.761-87.074 124.041 32.973 218.795 80.691 63.727 123.426 126.498 126.976 186.641 3.174 53.828-26.965 84.617-28.262 85.948l-17.101 17.067 5.973-23.415c26.761-105.54-43.452-160.495-117.794-218.726-36.079-28.228-73.318-57.412-96.597-92.331-50.654-75.981 26.999-156.126 118.17-238.455zM881.084 39.663c-0.137-0.341-16.247-29.935-143.326-53.862-73.421-13.79-160.017-21.129-250.334-21.129-74.274 0-145.681 4.983-201.114 14.131l-24.235 3.994 18.944-15.667c2.526-2.082 27.955-20.548 144.555-27.989 32.631-2.15 66.935-3.14 101.99-3.14v0c84.173 0 359.083 7.202 366.217 100.386l2.492 33.724-15.189-30.447z" />
<glyph unicode="&#xe928;" d="M113.778-64h796.444c62.838 0 113.778 50.94 113.778 113.778v796.444c0 62.838-50.94 113.778-113.778 113.778h-796.444c-62.838 0-113.778-50.94-113.778-113.778v-796.444c0-62.838 50.94-113.778 113.778-113.778z" />
<glyph unicode="&#xe929;" d="M853.077 555.819c-0.064 0.448-0.171 0.853-0.235 1.28-0.149 0.832-0.299 1.664-0.512 2.453-0.128 0.491-0.32 0.96-0.469 1.429-0.235 0.725-0.469 1.429-0.747 2.133-0.192 0.491-0.427 0.981-0.661 1.429-0.299 0.683-0.619 1.323-1.003 1.941-0.256 0.469-0.555 0.917-0.832 1.365-0.384 0.619-0.789 1.216-1.237 1.792-0.32 0.427-0.661 0.853-1.003 1.259-0.469 0.555-0.96 1.088-1.472 1.6-0.384 0.384-0.747 0.789-1.152 1.131-0.555 0.491-1.109 0.96-1.664 1.408-0.448 0.341-0.875 0.683-1.323 1.003-0.171 0.107-0.32 0.256-0.491 0.363l-312 208c-9.856 6.571-22.677 6.571-32.555 0l-311.979-208c-0.171-0.107-0.32-0.256-0.491-0.363-0.469-0.32-0.896-0.661-1.323-1.003-0.576-0.448-1.131-0.917-1.664-1.408-0.405-0.341-0.789-0.747-1.173-1.131-0.512-0.512-1.003-1.045-1.451-1.6-0.363-0.405-0.704-0.832-1.024-1.259-0.427-0.576-0.832-1.173-1.216-1.792-0.299-0.448-0.576-0.896-0.853-1.365-0.363-0.619-0.683-1.259-1.003-1.941-0.213-0.448-0.448-0.939-0.64-1.429-0.299-0.704-0.533-1.408-0.768-2.133-0.149-0.469-0.32-0.939-0.448-1.429-0.213-0.789-0.363-1.621-0.512-2.453-0.085-0.427-0.192-0.832-0.235-1.28-0.171-1.237-0.277-2.517-0.277-3.819v-208c0-1.28 0.107-2.56 0.277-3.84 0.043-0.405 0.149-0.832 0.235-1.259 0.149-0.832 0.299-1.643 0.512-2.453 0.128-0.491 0.299-0.96 0.448-1.429 0.235-0.704 0.469-1.429 0.768-2.155 0.192-0.469 0.427-0.939 0.64-1.408 0.32-0.661 0.64-1.301 1.003-1.963 0.277-0.448 0.555-0.896 0.853-1.344 0.384-0.619 0.789-1.195 1.216-1.771 0.32-0.448 0.661-0.875 1.024-1.28 0.448-0.533 0.939-1.088 1.451-1.579 0.384-0.405 0.768-0.789 1.173-1.152 0.533-0.491 1.088-0.96 1.664-1.408 0.427-0.341 0.853-0.683 1.323-1.003 0.171-0.107 0.32-0.256 0.491-0.363l311.979-208c4.928-3.285 10.603-4.928 16.277-4.928s11.349 1.643 16.277 4.928l312 208c0.171 0.107 0.32 0.256 0.491 0.363 0.448 0.32 0.875 0.661 1.323 1.003 0.555 0.448 1.109 0.917 1.664 1.408 0.405 0.363 0.768 0.747 1.152 1.152 0.512 0.491 1.003 1.045 1.472 1.579 0.341 0.405 0.683 0.832 1.003 1.28 0.448 0.576 0.853 1.152 1.237 1.771 0.277 0.448 0.576 0.896 0.832 1.344 0.384 0.661 0.704 1.301 1.003 1.963 0.235 0.469 0.469 0.939 0.661 1.408 0.277 0.725 0.512 1.451 0.747 2.155 0.149 0.469 0.341 0.939 0.469 1.429 0.213 0.811 0.363 1.621 0.512 2.453 0.064 0.427 0.171 0.853 0.235 1.259 0.171 1.28 0.256 2.56 0.256 3.84v208c0 1.301-0.085 2.581-0.256 3.819v0 0zM541.333 705.173l229.845-153.216-102.656-68.672-127.189 85.077v136.811zM482.667 705.173v-136.811l-127.168-85.077-102.677 68.672 229.845 153.216zM229.333 497.088l73.408-49.088-73.408-49.088v98.176zM482.667 190.827l-229.845 153.216 102.677 68.651 127.168-85.056v-136.811zM512 378.603l-103.744 69.397 103.744 69.397 103.765-69.397-103.765-69.397zM541.333 190.827v136.811l127.189 85.056 102.656-68.651-229.845-153.216zM794.667 398.912l-73.387 49.088 73.387 49.088v-98.176z" />
<glyph unicode="&#xe92a;" glyph-name="bs-code-qr" d="M320.001 896.001h-256.001v-256h256v256zM384 960v0-384h-384v384h384zM128.001 831.999h128.001v-128.001h-128.001v128.001zM960.001 896.001h-256v-256h256v256zM1024 960v0-384h-384v384h384zM768 831.999h128.001v-128.001h-128.001v128.001zM320.001 255.999h-256.001v-256h256v256zM384 320v0-384h-384v384h384zM128.001 192h128.001v-128.001h-128.001v128.001zM448 960h63.999v-63.999h-63.999v63.999zM512.001 896.001h63.999v-63.999h-63.999v63.999zM448 831.999h63.999v-63.999h-63.999v63.999zM512.001 768h63.999v-63.999h-63.999v63.999zM448 704h63.999v-63.999h-63.999v63.999zM512.001 639.999h63.999v-63.999h-63.999v63.999zM448 576h63.999v-63.999h-63.999v63.999zM448 447.999h63.999v-63.999h-63.999v63.999zM512.001 384h63.999v-63.999h-63.999v63.999zM448 320h63.999v-64.001h-63.999v64.001zM512.001 255.999h63.999v-63.999h-63.999v63.999zM448 192h63.999v-63.999h-63.999v63.999zM512.001 128h63.999v-64.001h-63.999v64.001zM448 63.999h63.999v-63.999h-63.999v63.999zM512.001-0.001h63.999v-63.999h-63.999v63.999zM960.001 447.999h64.001v-63.999h-64.001v63.999zM63.999 447.999h63.999v-63.999h-63.999v63.999zM128.001 512h63.999v-63.999h-63.999v63.999zM0 512h63.999v-63.999h-63.999v63.999zM256 512h63.999v-63.999h-63.999v63.999zM320.001 447.999h63.999v-63.999h-63.999v63.999zM384 512h63.999v-63.999h-63.999v63.999zM576 447.999h64.001v-63.999h-64.001v63.999zM640 512h63.999v-63.999h-63.999v63.999zM704.001 447.999h63.999v-63.999h-63.999v63.999zM768 512h64.001v-63.999h-64.001v63.999zM832 447.999h63.999v-63.999h-63.999v63.999zM896.001 512h63.999v-63.999h-63.999v63.999zM960.001 320h64.001v-64.001h-64.001v64.001zM576 320h64.001v-64.001h-64.001v64.001zM640 384h63.999v-63.999h-63.999v63.999zM704.001 320h63.999v-64.001h-63.999v64.001zM832 320h63.999v-64.001h-63.999v64.001zM896.001 384h63.999v-63.999h-63.999v63.999zM960.001 192h64.001v-63.999h-64.001v63.999zM576 192h64.001v-63.999h-64.001v63.999zM640 255.999h63.999v-63.999h-63.999v63.999zM768 255.999h64.001v-63.999h-64.001v63.999zM832 192h63.999v-63.999h-63.999v63.999zM896.001 255.999h63.999v-63.999h-63.999v63.999zM960.001 63.999h64.001v-63.999h-64.001v63.999zM640 128h63.999v-64.001h-63.999v64.001zM704.001 63.999h63.999v-63.999h-63.999v63.999zM768 128h64.001v-64.001h-64.001v64.001zM832 63.999h63.999v-63.999h-63.999v63.999zM640-0.001h63.999v-63.999h-63.999v63.999zM768-0.001h64.001v-63.999h-64.001v63.999zM896.001-0.001h63.999v-63.999h-63.999v63.999z" />
<glyph unicode="&#xe92b;" glyph-name="bs-comments" d="M604.295 304.311c61.897 26.095 110.761 61.615 146.567 106.574 35.802 44.949 53.705 93.899 53.705 146.851 0 52.955-17.903 101.908-53.719 146.859-35.802 44.951-84.658 80.475-146.563 106.576-61.905 26.097-129.236 39.141-202.004 39.141-72.761 0-140.092-13.052-202.002-39.141-61.903-26.099-110.761-61.623-146.565-106.576-35.808-44.959-53.715-93.905-53.715-146.861 0-45.329 13.544-88.014 40.59-128.014 27.044-39.991 64.189-73.712 111.423-101.136-3.807-9.151-7.712-17.521-11.713-25.15-4.003-7.618-8.76-14.945-14.288-21.998-5.524-7.055-9.805-12.575-12.855-16.562-3.048-3.999-8-9.631-14.861-16.856-6.859-7.239-11.242-12.001-13.144-14.28 0 0.382-0.763-0.48-2.288-2.576-1.527-2.096-2.384-3.042-2.572-2.864-0.192 0.206-0.955-0.747-2.288-2.842-1.333-2.098-2.001-3.144-2.001-3.144l-1.431-2.848c-0.564-1.151-0.953-2.276-1.141-3.427-0.192-1.135-0.288-2.382-0.288-3.711s0.188-2.562 0.576-3.711c0.763-4.946 2.952-8.939 6.571-12.001 3.617-3.042 7.517-4.561 11.713-4.561h1.715c19.044 2.666 35.428 5.712 49.14 9.145 58.667 15.231 111.624 39.623 158.86 73.143 34.283-6.096 67.808-9.143 100.567-9.143 72.767-0.026 140.106 13.014 202.010 39.113zM983.426 283.174c27.056 39.807 40.574 82.554 40.574 128.274 0 46.862-14.302 90.698-42.863 131.456-28.575 40.754-67.437 74.665-116.575 101.712 8.754-28.569 13.136-57.52 13.136-86.859 0-51.043-12.745-99.425-38.286-145.144-25.523-45.705-62.095-86.083-109.712-121.136-44.192-31.999-94.479-56.563-150.864-73.712-56.369-17.137-115.23-25.715-176.565-25.715-11.424 0-28.189 0.755-50.281 2.276 76.568-50.275 166.476-75.425 269.709-75.425 32.766 0 66.286 3.054 100.575 9.149 47.235-33.534 100.193-57.904 158.856-73.151 13.714-3.439 30.096-6.479 49.144-9.143 4.569-0.382 8.768 0.953 12.575 4.001 3.809 3.046 6.289 7.225 7.425 12.553-0.178 2.288 0 3.543 0.574 3.725 0.562 0.18 0.466 1.425-0.288 3.707-0.753 2.29-1.137 3.433-1.137 3.433l-1.425 2.85c-0.396 0.753-1.041 1.807-1.999 3.136-0.953 1.321-1.711 2.288-2.288 2.856-0.56 0.568-1.411 1.527-2.562 2.85-1.137 1.321-1.903 2.186-2.288 2.568-1.903 2.288-6.283 7.047-13.138 14.288-6.863 7.231-11.807 12.849-14.855 16.848-3.048 4.001-7.335 9.521-12.857 16.576-5.52 7.041-10.288 14.377-14.288 21.998-3.999 7.618-7.904 16.002-11.713 25.138 47.239 27.452 84.374 61.071 111.415 100.892z" />
<glyph unicode="&#xe92c;" glyph-name="bs-comments-2" d="M960 896h-576c-35.2 0-64-28.8-64-64v-128h-256c-35.2 0-64-28.8-64-64v-384c0-35.2 28.8-64 64-64h64v-192l192 192h256c35.2 0 64 28.8 64 64v128h64l192-192v192h64c35.2 0 64 28.8 64 64v384c0 35.2-28.8 64-64 64zM576 256h-288l-96-96v96h-128v384h256v-192c0-35.2 28.8-64 64-64h192v-128zM960 448h-128v-96l-96 96h-352v384h576v-384z" />
<glyph unicode="&#xe92d;" glyph-name="bs-console" d="M0 896v-896h1024v896h-1024zM960 64h-896v768h896v-768zM896 768h-768v-640h768v640zM448 448h-64v-64h-64v-64h-64v64h64v64h64v64h-64v64h-64v64h64v-64h64v-64h64v-64zM704 320h-192v64h192v-64z" />
<glyph unicode="&#xe92e;" glyph-name="bs-css" d="M70.69 960l81.92-920.337 367.343-103.663 369.971 103.663 81.886 920.337h-901.12zM719.019 239.070l-257.263-106.803-223.334 106.803 22.733 142.336h94.993l-9.25-58.812 135.066-64.341 155.477 64.341 21.811 135.68h-386.628l18.603 118.784h386.867l12.117 76.39h-386.526l18.876 118.818h481.553l-85.094-533.197z" />
<glyph unicode="&#xe92f;" glyph-name="bs-css-2" d="M960 896l-128-736-446.592-160-385.408 160 39.2 189.6h164l-16-81.216 232.8-88.8 268.192 88.8 37.6 194.208h-666.784l32 164h667.392l20.992 105.408h-666.784l32.608 164z" />
<glyph unicode="&#xe930;" glyph-name="bs-download" d="M1006.769 273.219c-11.476 11.484-25.434 17.231-41.837 17.231h-285.548l-83.691-83.689c-23.796-22.971-51.692-34.461-83.691-34.461-31.993 0-59.898 11.476-83.691 34.461l-83.077 83.689h-286.156c-16.407 0-30.355-5.753-41.846-17.231-11.488-11.484-17.231-25.434-17.231-41.852v-196.917c0-16.412 5.742-30.359 17.231-41.846 11.488-11.484 25.436-17.222 41.846-17.222h905.858c16.403 0 30.362 5.738 41.837 17.222 11.493 11.486 17.231 25.434 17.231 41.846v196.917c0 16.418-5.738 30.368-17.233 41.852zM776.012 65.835c-7.805-7.796-17.039-11.691-27.706-11.691s-19.888 3.895-27.691 11.691c-7.79 7.796-11.685 17.024-11.685 27.684 0 10.665 3.895 19.908 11.685 27.691 7.803 7.803 17.024 11.706 27.691 11.706s19.899-3.904 27.706-11.706c7.788-7.781 11.685-17.024 11.685-27.691 0-10.659-3.897-19.888-11.685-27.684zM933.541 65.835c-7.79-7.796-17.024-11.691-27.693-11.691-10.665 0-19.893 3.895-27.691 11.691-7.788 7.796-11.682 17.024-11.682 27.684 0 10.665 3.895 19.908 11.682 27.691 7.796 7.803 17.024 11.706 27.691 11.706s19.901-3.904 27.693-11.706c7.796-7.781 11.698-17.024 11.698-27.691 0-10.659-3.895-19.888-11.698-27.684zM484.31 262.76c7.389-7.788 16.618-11.685 27.691-11.685 11.081 0 20.3 3.897 27.691 11.685l275.696 275.698c12.715 11.896 15.592 26.258 8.615 43.079-6.962 15.996-19.069 23.994-36.306 24.003h-157.543v275.694c0 10.665-3.904 19.897-11.685 27.691-7.803 7.796-17.030 11.695-27.691 11.695h-157.554c-10.661 0-19.893-3.899-27.691-11.695-7.792-7.794-11.691-17.024-11.691-27.691v-275.696h-157.539c-17.239 0-29.336-8.007-36.311-24.003-6.971-16.815-4.102-31.183 8.62-43.079l275.698-275.696z" />
<glyph unicode="&#xe931;" glyph-name="bs-dropbox" d="M830.676 556.685l-306.176 186.42 193.086 159.993 306.414-188.563-193.324-157.85zM715.443 204.083l294.034 172.135-176.897 149.755-288.082-174.278 170.944-147.612zM479.263 351.695l-288.082 174.278-176.658-149.755 294.272-172.135 170.468 147.612zM205.705 228.605v-55.474l294.034-180.468v342.603l-195.229-159.993-98.805 53.331zM818.295 228.605l-98.805-53.331-195.229 159.993v-342.365l294.034 180.468v55.236zM499.739 743.105l-193.086 159.993-306.652-188.563 193.324-157.85 306.414 186.42z" />
<glyph unicode="&#xe932;" glyph-name="bs-explorer" d="M772.847 368.879h248.457c1.946 17.203 2.697 34.782 2.697 52.804 0 84.48-22.665 163.669-62.191 231.868 40.926 108.749 39.458 201.079-15.326 256.205-52.122 51.883-191.863 43.452-349.935-26.522-11.674 0.922-23.484 1.331-35.396 1.331-216.883 0-398.882-149.197-449.126-350.345 67.994 87.142 139.605 150.255 235.213 196.267-8.67-8.124-59.392-58.607-67.925-67.14-252.211-252.075-331.742-581.427-246.204-666.931 65.058-65.058 182.921-54.067 318.327 12.254 62.942-32.051 134.212-50.142 209.681-50.142 203.332 0 375.603 130.799 437.999 313.071h-250.402c-34.475-63.522-101.786-106.803-179.132-106.803s-144.725 43.281-179.2 106.803c-15.326 28.74-24.132 61.679-24.132 96.461v0.785l406.596 0.034zM366.66 491.008c5.734 102.195 90.726 183.74 194.458 183.74s188.723-81.545 194.458-183.74h-388.915zM944.196 858.351c35.26-35.669 34.406-101.274 4.198-183.194-51.746 78.882-126.874 141.005-215.518 176.469 94.788 40.721 171.964 46.046 211.319 6.724zM98.372 12.595c-44.988 45.056-31.471 139.605 26.59 253.542 36.079-101.342 106.462-186.402 197.188-241.186-100.42-45.602-182.647-53.419-223.778-12.356z" />
<glyph unicode="&#xe933;" glyph-name="bs-eye" d="M448.512 200.192c-199.339 0-358.4 118.101-434.176 296.277 76.459 178.176 235.52 296.277 434.176 296.277s358.4-118.101 434.859-296.277c-76.459-178.176-236.203-296.277-434.859-296.277v0 0zM448.512 271.189c157.696 0 293.547 92.16 357.035 225.28-63.488 133.12-199.339 225.28-357.035 225.28-157.013 0-292.864-92.16-356.352-225.28 62.805-133.12 198.656-225.28 356.352-225.28v0 0zM283.307 496.469c0 91.477 73.728 165.205 164.523 165.205 91.477 0 165.205-74.411 165.205-165.205 0-91.477-74.411-165.205-165.205-165.205s-164.523 74.411-164.523 165.205v0 0zM458.069 538.112c0-28.672 22.528-51.883 51.883-51.883 27.989 0 51.2 23.211 51.2 51.883 0 27.989-22.528 51.2-51.2 51.2s-51.883-22.528-51.883-51.2v0 0z" />
<glyph unicode="&#xe934;" glyph-name="bs-facebook" d="M616.6-57c-5-0.2-8.2-0.6-11.4-0.6-68.4 0-136.6 0.2-205-0.2-9.6 0-12.2 2.6-12.2 12.2 0.2 159.2 0.2 318.6 0.2 477.8 0 4.2 0 8.4 0 13.8-37.2 0-73.4 0-110.2 0 0 56.8 0 112.6 0 170 3.8 0 7.4 0 10.8 0 30 0 60 0.2 90-0.2 7.6 0 9.6 2.2 9.6 9.6-0.4 44.6-0.4 89.4 0 134 0.2 31.2 5.2 61.6 19.6 89.8 20.6 39.8 53.2 65.6 94.4 81.6 33.6 13.2 69 18 104.6 18.6 58 0.8 116 0.4 174 0.6 5.4 0 9.8 0.2 9.8-7.4-0.2-55-0.2-110-0.2-165 0-0.6-0.2-1.2-1-3.8-3.4 0-7.2 0-11 0-36 0-72 0.2-108 0-20.8 0-37.6-8.4-48.2-26.6-3.2-5.4-5.2-12.4-5.2-18.8-0.6-34 0-68-0.4-102 0-8 2.4-10.2 10.2-10.2 50 0.4 100 0.2 150 0.2 4 0 7.8 0 14.6 0-7-57.2-13.8-113.2-20.8-169.8-52 0-102.6 0-154.2 0 0-168.2 0-335.4 0-503.6z" />
<glyph unicode="&#xe935;" glyph-name="bs-facebook-2" d="M967.665 903.672c-37.54 37.55-82.77 56.328-135.654 56.328h-640.005c-52.884 0-98.114-18.778-135.671-56.328-37.55-37.557-56.328-82.784-56.328-135.671v-639.998c0-52.882 18.778-98.114 56.328-135.671 37.557-37.557 82.787-56.335 135.671-56.335h639.998c52.884 0 98.114 18.778 135.654 56.335 37.557 37.557 56.335 82.787 56.335 135.671v639.998c-0.002 52.886-18.781 98.121-56.328 135.671zM871.333 433.336h-116.666v-423.324h-174.666v423.324h-87.331v146.006h87.333v87.335c0 62.668 14.671 109.997 43.999 142.001 29.326 32.004 77.766 47.997 145.338 47.997h116.666v-146.001h-73.323c-24.899 0-40.786-4.327-47.675-13.002-6.886-8.665-10.34-23.887-10.34-45.669v-72.664h132.009l-15.346-146.003z" />
<glyph unicode="&#xe936;" glyph-name="bs-face-icon" d="M511.999 960c-282.623 0-511.999-229.376-511.999-511.999 0-282.625 229.376-511.999 511.999-511.999 282.625 0 511.999 229.376 511.999 511.999 0.002 282.623-229.374 511.999-511.999 511.999zM696.32 632.32c24.576 0 40.96-16.384 40.96-40.96s-16.384-40.96-40.96-40.96-40.96 16.384-40.96 40.96 16.384 40.96 40.96 40.96zM327.68 632.32c24.576 0 40.96-16.384 40.96-40.96s-16.384-40.96-40.96-40.96-40.96 16.384-40.96 40.96 16.384 40.96 40.96 40.96zM647.168 185.855c-77.823 4.097-118.783 53.249-135.167 86.017-16.384-32.768-57.344-81.92-135.167-86.017-110.593-4.095-212.992 98.304-212.992 135.169 40.96-45.057 114.688-49.152 151.553-32.77 57.344 28.673 49.152 81.92 90.112 118.785 24.576 20.479 57.344 20.479 86.017 0 4.095-4.095 12.287-8.192 16.384-16.384 4.095 4.097 8.19 12.289 16.382 16.384 28.673 20.479 65.538 20.479 86.017 0 40.96-36.865 32.768-90.112 90.11-118.785 40.96-20.479 110.593-16.382 151.553 32.77 8.19-36.863-94.211-139.264-204.802-135.169z" />
<glyph unicode="&#xe937;" glyph-name="bs-file" d="M279.273 401.455h465.455v-46.545h-465.455v46.545zM279.273 261.818h465.455v-46.545h-465.455v46.545zM279.273 820.364h279.273v-46.545h-279.273v46.545zM279.273 122.182h465.455v-46.545h-465.455v46.545zM279.273 541.091h465.455v-46.545h-465.455v46.545zM861.789-64c0 0 22.575 0 22.575 22.761v796.439l-203.124 204.8h-519.028c0 0-22.575 0-22.575-22.761v-978.432c0-22.807 22.575-22.807 22.575-22.807h699.578zM186.182 913.455h465.455v-139.636c0-46.545 46.545-46.545 46.545-46.545h139.636v-744.727h-651.636v930.909zM279.273 680.727h465.455v-46.545h-465.455v46.545z" />
<glyph unicode="&#xe938;" glyph-name="bs-file-add" d="M279.273 75.636h279.273c0 16.058 2.048 31.651 5.865 46.545h-285.137v-46.545zM791.273-64v93.091h93.091v93.091h-93.091v93.091h-93.091v-93.091h-93.091v-93.091h93.091v-93.091zM744.727 261.818h-465.455v-46.545h342.295c32.815 28.951 75.962 46.545 123.159 46.545zM279.273 680.727h465.455v-46.545h-465.455v46.545zM279.273 401.455h465.455v-46.545h-465.455v46.545zM884.364 755.2l-203.124 204.8h-519.028c0 0-22.575 0-22.575-22.761v-978.432c0-22.807 22.575-22.807 22.575-22.807h459.357c-15.081 13.312-27.974 29.044-38.121 46.545h-397.265v930.909h465.455v-139.636c0-46.545 46.545-46.545 46.545-46.545h139.636v-490.356c17.501-10.148 33.233-23.040 46.545-38.121v556.404zM279.273 820.364h279.273v-46.545h-279.273v46.545zM279.273 541.091h465.455v-46.545h-465.455v46.545z" />
<glyph unicode="&#xe939;" glyph-name="bs-firefox" d="M1022.525 625.859l-11.862-76.080c0 0-16.952 140.855-37.73 193.515-31.847 80.688-46.015 80.041-46.109 79.922 21.329-54.203 17.459-83.324 17.459-83.324s-37.791 102.998-137.708 135.769c-110.686 36.282-170.571 26.362-177.488 24.486-1.050 0.008-2.064 0.010-3.028 0.010 0.814-0.063 1.611-0.148 2.425-0.211-0.036-0.021-0.090-0.042-0.081-0.054 0.447-0.547 122.304-21.3 143.915-50.995 0 0-51.759 0-103.271-14.844-2.329-0.666 189.523-23.963 228.747-215.673 0 0-21.034 43.876-47.044 51.327 17.105-52.036 12.714-150.775-3.575-199.851-2.097-6.311-4.241 27.281-36.328 41.75 10.282-73.649-0.614-190.456-51.707-222.633-3.982-2.506 32.029 115.309 7.24 69.763-142.708-218.803-311.404-100.973-387.25-49.112 38.867-8.46 112.654 1.317 145.315 25.615 0.042 0.029 0.077 0.054 0.119 0.086 35.468 24.251 56.471 41.96 75.333 37.77 18.874-4.212 31.438 14.728 16.779 31.532-14.676 16.836-50.31 39.976-98.521 27.368-33.999-8.905-76.136-46.523-140.448-8.433-49.363 29.249-54.011 53.547-54.449 70.376 1.217 5.965 2.753 11.535 4.575 16.625 5.681 15.869 22.911 20.657 32.494 24.438 16.257-2.792 30.261-7.862 44.968-15.406 0.19 4.894 0.252 11.391-0.017 18.76 1.409 2.801 0.538 11.251-1.722 21.581-1.302 10.308-3.42 20.974-6.753 30.691 0.012 0.002 0.019 0.010 0.031 0.013 0.056 0.019 0.108 0.040 0.157 0.071 0.079 0.044 0.146 0.113 0.207 0.19 0.012 0.019 0.031 0.033 0.044 0.052 0.083 0.123 0.154 0.273 0.198 0.467 1.020 4.618 12.023 13.524 25.718 23.099 12.273 8.58 26.701 17.697 38.068 24.753 10.061 6.248 17.72 10.883 19.348 12.098 0.616 0.467 1.357 1.012 2.164 1.636 0.15 0.117 0.3 0.232 0.453 0.355 0.094 0.073 0.19 0.148 0.286 0.225 5.409 4.308 13.484 12.447 15.178 29.578 0.004 0.042 0.010 0.081 0.012 0.123 0.050 0.503 0.092 1.014 0.129 1.534 0.029 0.361 0.050 0.726 0.073 1.096 0.013 0.284 0.033 0.566 0.044 0.854 0.031 0.676 0.050 1.365 0.060 2.064 0 0.040 0.002 0.077 0.004 0.117 0.023 1.659-0.006 3.387-0.104 5.201-0.054 1.014-0.125 1.93-0.298 2.761-0.008 0.044-0.019 0.092-0.029 0.136-0.017 0.081-0.036 0.163-0.058 0.244-0.036 0.146-0.077 0.292-0.121 0.43-0.006 0.017-0.012 0.033-0.017 0.046-0.052 0.159-0.111 0.315-0.173 0.465-0.004 0.006-0.004 0.010-0.006 0.015-1.753 4.107-8.319 5.658-35.441 6.119-0.025 0.002-0.050 0.002-0.075 0.002v0c-11.067 0.188-25.538 0.196-44.504 0.119-33.249-0.134-51.627 32.504-57.492 45.131 8.041 44.459 31.277 76.141 69.448 97.626 0.722 0.407 0.58 0.743-0.273 0.977 7.463 4.516-90.246 0.123-135.187-57.037-39.888 9.915-74.653 9.247-104.615 2.216-5.754 0.161-12.924 0.879-21.435 2.652-19.928 18.056-48.453 51.402-49.981 91.208 0 0-0.092-0.073-0.252-0.204-0.021 0.382-0.058 0.76-0.073 1.142 0 0-60.716-46.664-51.629-173.881-0.023-2.037-0.065-3.986-0.119-5.875-16.431-22.287-24.586-41.021-25.192-45.156-14.556-29.645-29.33-74.256-41.353-141.982 0 0 8.408 26.665 25.284 56.866-12.411-38.022-22.164-97.158-16.437-185.856 0 0 1.515 19.667 6.874 47.994 4.188-55.012 22.52-122.926 68.859-202.788 88.948-153.319 225.671-230.74 376.792-242.615 26.836-2.212 54.048-2.264 81.423-0.184 2.517 0.177 5.032 0.361 7.548 0.574 30.962 2.173 62.133 6.851 93.239 14.364 425.174 102.799 378.944 616.196 378.944 616.196z" />
<glyph unicode="&#xe93a;" glyph-name="bs-folder" d="M325.679 936.727h-232.448c-25.786 0-46.684-20.666-46.684-46.545v-186.182h930.908v93.137c0 25.694-20.851 46.5-46.498 46.5h-558.594v46.545c0 25.692-20.386 46.545-46.684 46.545zM0 610.537v-604.393c0-25.879 20.433-46.871 46.639-46.871h930.677c25.786 0 46.684 20.898 46.684 46.918v604.346c0 25.926-20.48 46.918-46.684 46.918h-930.677c-25.741 0-46.639-20.9-46.639-46.918z" />
<glyph unicode="&#xe93b;" glyph-name="bs-folder-download" d="M529.655 200.827l112.993 112.993 28.248-28.248-158.896-155.366-158.896 158.896 28.248 28.248 112.993-116.523v317.795h-494.347v-388.414c0-38.84 31.778-70.621 70.621-70.621h882.759c38.84 0 70.621 31.78 70.621 70.621v388.414h-494.345v-317.795zM953.379 695.171h-423.724l-70.621 141.241h-388.414c-38.842 0-70.621-31.778-70.621-70.621v-211.862h1024v70.621c0 38.842-31.78 70.621-70.621 70.621z" />
<glyph unicode="&#xe93c;" glyph-name="bs-folders" d="M0 96c0-35.199 28.799-64 64-64h800c35.199 0 64 28.801 64 64v352h-928v-352zM864 608h-384l-64 128h-352c-35.201 0-64-28.799-64-64v-192h928v64c0 35.201-28.801 64-64 64zM960 736h-384l-64 128h-352c-35.201 0-64-28.799-64-64v-32h352l64-128h352c54.401 0 96-41.599 96-96v-384c35.199 0 64 28.801 64 64v448c0 35.201-28.801 64-64 64z" />
<glyph unicode="&#xe93d;" glyph-name="bs-folder-upload" d="M0 130.206c0-38.84 31.778-70.621 70.621-70.621h423.724v317.795l-112.993-112.993-28.248 24.718 158.896 158.896 158.896-158.896-28.248-28.248-112.993 116.523v-317.793h423.724c38.84 0 70.621 31.78 70.621 70.621v388.414h-1023.998v-388.416zM953.379 695.171h-423.724l-70.621 141.241h-388.414c-38.842 0-70.621-31.778-70.621-70.621v-211.862h1024v70.621c0 38.842-31.78 70.621-70.621 70.621z" />
<glyph unicode="&#xe93e;" glyph-name="bs-forward" d="M0-24.615l472.615 472.655-472.615 472.576zM551.385 920.615v-945.231l472.615 472.655z" />
<glyph unicode="&#xe93f;" glyph-name="bs-github" d="M955.312 692.475c-45.784 78.446-107.887 140.551-186.326 186.331-78.45 45.782-164.095 68.667-256.994 68.667-92.888 0-178.56-22.892-256.994-68.667-78.446-45.777-140.547-107.885-186.331-186.331-45.777-78.443-68.667-164.104-68.667-256.98 0-111.565 32.55-211.887 97.665-300.992 65.108-89.112 149.219-150.774 252.324-184.993 12.002-2.228 20.886-0.661 26.663 4.661 5.779 5.328 8.665 12.002 8.665 19.992 0 1.333-0.114 13.328-0.336 35.998-0.229 22.67-0.336 42.447-0.336 59.322l-15.334-2.653c-9.777-1.791-22.11-2.55-37-2.335-14.883 0.208-30.334 1.768-46.331 4.668-16.004 2.874-30.889 9.541-44.668 19.985-13.772 10.444-23.548 24.116-29.327 40.993l-6.666 15.341c-4.443 10.213-11.439 21.559-20.996 33.995-9.557 12.448-19.221 20.886-28.998 25.33l-4.668 3.341c-3.11 2.221-5.996 4.899-8.665 8.007-2.667 3.108-4.663 6.218-5.996 9.333-1.336 3.117-0.229 5.674 3.332 7.68s9.996 2.979 19.334 2.979l13.328-1.992c8.889-1.782 19.885-7.103 33-15.997 13.109-8.887 23.884-20.44 32.33-34.656 10.227-18.227 22.549-32.115 37-41.672 14.439-9.557 28.998-14.327 43.662-14.327s27.329 1.111 37.999 3.323c10.659 2.223 20.66 5.564 29.997 10.005 4 29.79 14.89 52.675 32.662 68.672-25.33 2.662-48.103 6.671-68.331 12.002-20.216 5.338-41.107 14-62.659 26.012-21.563 11.995-39.452 26.89-53.669 44.659-14.22 17.778-25.89 41.119-34.994 70-9.109 28.893-13.664 62.222-13.664 99.998 0 53.786 17.559 99.556 52.67 137.336-16.448 40.437-14.895 85.768 4.663 135.989 12.889 4.004 32.003 0.999 57.333-8.997 25.334-10.001 43.883-18.568 55.666-25.671 11.782-7.101 21.223-13.118 28.335-17.998 41.341 11.551 84.003 17.328 127.999 17.328s86.667-5.777 128.010-17.328l25.332 15.992c17.323 10.671 37.78 20.45 61.321 29.339 23.555 8.885 41.567 11.332 54.017 7.327 19.992-50.223 21.774-95.552 5.321-135.989 35.109-37.78 52.675-83.562 52.675-137.336 0-37.775-4.572-71.21-13.667-100.324-9.106-29.119-20.877-52.436-35.316-70-14.456-17.561-32.458-32.339-54.010-44.332-21.556-12.002-42.454-20.665-62.671-26.002-20.226-5.338-42.999-9.349-68.328-12.016 23.102-19.992 34.656-51.549 34.656-94.657v-140.652c0-7.99 2.779-14.661 8.341-19.992 5.555-5.321 14.327-6.888 26.329-4.658 103.119 34.214 187.23 95.879 252.336 184.991 65.099 89.105 97.66 189.427 97.66 300.992-0.023 92.864-22.925 178.518-68.681 256.961z" />
<glyph unicode="&#xe940;" glyph-name="bs-github-2" d="M437.4 69c-13.2-1.4-24.4-2.8-35.6-4-58.2-5.8-109 10-147.4 55.4-12 14.2-18.8 32.6-29 48.4-15.8 24.8-32 49.4-49.4 73.2-6 8.2-16.4 13-24.4 20-2.6 2.2-3.4 6.4-5.2 9.8 3.6 1.4 7 3.8 10.6 4.2 46 4.2 78.4-17 101-55.2 28.2-47.6 69-73.6 124.4-73.6 16 0 32 5.4 47.8 9 3 0.8 6.6 5.4 7 8.8 2.8 20.8 5.4 41.6 15 60.6 3.6 7 7.8 13.6 12 20.8-16.2 3.2-31.8 5.6-47.2 9.4-71 18-129.6 53.6-163.6 121.2-13.2 26.4-20.6 54.8-21.6 84.4-1.6 45.6-1 91.4 8.2 136.4 6.6 31.6 18.6 61 42.6 83.8 5.2 5 6.2 9.4 3.4 17-13.4 37.4-14.8 75.4-3.4 113.6 2.4 8.2 4.6 16.4 7 25 54.8-10.4 87.4-47.4 118-88.4 31.6 23.4 69 25.4 105.4 27.8 43.2 2.8 86.6 2.2 129.6-4.8 22.4-3.6 36.2-8.2 58-21.2 18.8 19.4 36.4 39 55.8 56.8 15.4 14.2 34.6 23.2 55.4 28 5.8 1.4 8.8 0.8 11.2-5.6 16.2-44.2 18.6-88.2 0.8-132.4-2.4-6-2.2-10.2 2.8-15 28.8-27.4 42-62.8 46.4-101 4-35.4 6.2-71 6.2-106.6 0-50.6-15-97-46.8-136.8-22.4-28.2-51.4-48.4-84.2-63.6-31.8-14.6-65-23-99.4-27.4-0.8-0.2-1.6-0.8-3-1.4 23.6-33.8 27.4-71.8 27-111.2-0.6-57.4-0.4-114.6 0-172 0-9-2.6-11.2-11.4-11.2-71 0.4-142 0.4-213 0-8.8 0-11.6 2.8-11.6 11.4 0.4 31 0.2 62 0.2 93 0.4 4.6 0.4 8.6 0.4 13.4z" />
<glyph unicode="&#xe941;" glyph-name="bs-graph-line" d="M1024 0v-64h-1024v1024h128v-64h-64v-128h64v-64h-64v-128h64v-64h-64v-128h64v-64h-64v-128h64v-64h-64v-128h960zM288 128c53 0 96 43 96 96 0 20.75-6.718 39.812-17.906 55.5l122.406 122.376c15.688-11.126 34.782-17.876 55.5-17.876 26.124 0 49.75 10.5 67.062 27.5l105.562-76.812c-7.812-13.876-12.624-29.626-12.624-46.688 0-53 43-96 96-96s96 43 96 96c0 36.438-20.562 67.812-50.5 84.062l96.5 386.062 61.876-15.5-43.876 153.376-110.938-114.688 61.938-15.438-95.876-383.374c-4.938 0.75-9.938 1.5-15.124 1.5-24.376 0-46.376-9.376-63.312-24.376l-107.062 77.876c6.436 12.874 10.374 27.124 10.374 42.5 0 53-43 96-96 96-53.032 0-96-43-96-96 0-20.75 6.718-39.75 17.876-55.5l-122.406-122.376c-15.688 11.126-34.752 17.876-55.47 17.876-53.032 0-96-43-96-96s42.968-96 96-96z" />
<glyph unicode="&#xe942;" glyph-name="bs-happy" d="M511.999 960c-282.623 0-511.999-229.376-511.999-511.999 0-282.625 229.376-511.999 511.999-511.999 282.625 0 511.999 229.376 511.999 511.999 0.002 282.623-229.374 511.999-511.999 511.999zM307.201 673.28l114.688-114.688-28.673-28.671-86.017 86.017-86.017-86.017-28.671 28.673 114.69 114.686zM511.999 99.84c-266.239 0-307.201 245.76-307.201 245.76h614.402c0 0-40.96-245.76-307.201-245.76zM802.816 529.921l-86.015 86.017-86.015-86.017-28.673 28.673 114.688 114.688 114.688-114.688-28.673-28.673z" />
<glyph unicode="&#xe943;" glyph-name="bs-happy-2" d="M511.999 960c-282.623 0-511.999-229.376-511.999-511.999 0-282.625 229.376-511.999 511.999-511.999 282.625 0 511.999 229.376 511.999 511.999 0.002 282.623-229.374 511.999-511.999 511.999zM696.32 632.32c24.576 0 40.96-16.384 40.96-40.96s-16.384-40.96-40.96-40.96-40.96 16.384-40.96 40.96 16.384 40.96 40.96 40.96zM327.68 632.32c24.576 0 40.96-16.384 40.96-40.96s-16.384-40.96-40.96-40.96-40.96 16.384-40.96 40.96 16.384 40.96 40.96 40.96zM511.999 99.84c-266.239 0-307.201 245.76-307.201 245.76h614.402c0 0-40.96-245.76-307.201-245.76z" />
<glyph unicode="&#xe944;" glyph-name="bs-heart" d="M528.091 26.697c103.131 171.154 181.394 209.92 341.577 326.949 140.434 103.863 140.434 269.897 59.246 369.371-105.326 126.537-314.514 117.76-400.823-42.423-86.309 160.183-294.766 169.691-400.091 42.423-81.189-99.474-81.189-265.509 59.246-369.371 160.183-117.029 238.446-155.794 340.846-326.949v0 0z" />
<glyph unicode="&#xe945;" glyph-name="bs-home" d="M512.001 690.953l-365.205-301.073c0-0.425-0.107-1.050-0.32-1.902-0.209-0.845-0.32-1.459-0.32-1.895v-304.868c0-11.008 4.024-20.547 12.071-28.58 8.044-8.038 17.57-12.082 28.58-12.082h243.888v243.902h162.615v-243.911h243.886c11.008 0 20.547 4.036 28.58 12.091 8.047 8.024 12.084 17.57 12.084 28.58v304.868c0 1.691-0.231 2.968-0.641 3.797l-365.219 301.073zM1016.937 458.479l-139.090 115.597v259.143c0 5.924-1.904 10.796-5.726 14.609-3.791 3.809-8.663 5.713-14.6 5.713h-121.946c-5.931 0-10.801-1.904-14.616-5.713-3.806-3.813-5.708-8.687-5.708-14.609v-123.853l-154.974 129.575c-13.535 11.010-29.628 16.514-48.262 16.514-18.631 0-34.722-5.504-48.27-16.514l-456.687-380.462c-4.234-3.381-6.554-7.933-6.985-13.65-0.429-5.713 1.050-10.703 4.443-14.934l39.379-47.002c3.393-3.809 7.833-6.138 13.339-6.99 5.083-0.427 10.167 1.059 15.25 4.445l439.52 366.493 439.524-366.491c3.395-2.954 7.833-4.429 13.339-4.429h1.909c5.497 0.836 9.929 3.181 13.339 6.981l39.383 46.996c3.386 4.24 4.87 9.221 4.429 14.941-0.434 5.702-2.763 10.253-6.988 13.642z" />
<glyph unicode="&#xe946;" glyph-name="bs-home-2" d="M819.196 960h-614.402c-112.647 0-204.794-92.196-204.794-204.794v-614.402c0-112.705 92.147-204.804 204.794-204.804h614.392c112.657 0 204.804 92.099 204.804 204.804v614.402c0.010 112.599-92.138 204.794-204.794 204.794zM800 400.010v-288h-240v191.99h-96.019v-191.99h-239.981v288h-96l384 383.971 384.010-383.971h-96.010z" />
<glyph unicode="&#xe947;" glyph-name="bs-html" d="M70.724 960l81.886-920.337 367.377-103.663 369.903 103.663 81.954 920.337h-901.12zM793.907 659.797h-431.343l9.591-115.814h412.126l-31.983-348.194-229.717-63.317v-0.683h-2.56l-231.663 64-14.097 177.937h111.991l8.329-89.6 125.44-33.929 126.020 33.929 14.131 145.92h-391.68l-30.106 341.743h565.794l-10.274-111.991z" />
<glyph unicode="&#xe948;" glyph-name="bs-info" d="M512 960c-282.77 0-512-229.23-512-512s229.23-512 512-512 512 229.23 512 512-229.23 512-512 512zM448 768h128v-128h-128v128zM640 128h-256v64h64v256h-64v64h192v-320h64v-64z" />
<glyph unicode="&#xe949;" glyph-name="bs-instagram" d="M985.343 921.327c-25.779 25.786-56.671 38.673-92.661 38.673h-761.34c-36.002 0-66.885-12.892-92.671-38.673-25.781-25.774-38.668-56.662-38.668-92.657v-761.333c0-35.99 12.885-66.885 38.668-92.661 25.786-25.779 56.676-38.675 92.671-38.675h761.331c35.983 0 66.885 12.896 92.664 38.675 25.786 25.777 38.661 56.671 38.661 92.661v761.333c-0.002 36.002-12.875 66.873-38.654 92.657zM367.68 591.005c40.219 38.883 88.554 58.334 144.999 58.334 56.882 0 105.434-19.451 145.662-58.334 40.228-38.89 60.33-85.895 60.33-141.004 0-55.102-20.102-102.109-60.33-140.988-40.228-38.899-88.764-58.348-145.662-58.348-56.443 0-104.773 19.465-144.999 58.348-40.228 38.883-60.34 85.885-60.34 140.988 0 55.109 20.112 102.111 60.34 141.004zM908.016 94.659c0-11.547-4.012-21.209-12.004-28.992-8.016-7.776-17.557-11.666-28.679-11.666h-712.655c-11.554 0-21.228 3.89-28.999 11.666-7.783 7.766-11.671 17.445-11.671 28.992v432.015h93.997c-8.885-28.004-13.328-57.12-13.328-87.335 0-85.353 31.107-158.117 93.329-218.352 62.229-60.211 137.116-90.331 224.671-90.331 57.778 0 111.108 13.784 160.013 41.337 48.889 27.57 87.531 65.005 115.996 112.344 28.448 47.336 42.671 99.006 42.671 155 0 30.215-4.46 59.324-13.345 87.335h90.009v-432.015h-0.005zM908.016 690.008c0-12.889-4.444-23.78-13.347-32.667-8.885-8.894-19.768-13.335-32.665-13.335h-115.996c-12.882 0-23.782 4.444-32.667 13.335-8.887 8.887-13.328 19.778-13.328 32.667v109.99c0 12.446 4.441 23.222 13.328 32.336 8.887 9.109 19.787 13.669 32.667 13.669h115.996c12.896 0 23.782-4.558 32.665-13.669 8.901-9.114 13.347-19.89 13.347-32.336v-109.99z" />
<glyph unicode="&#xe94a;" glyph-name="bs-instagram-2" d="M512.001 960c-139.052 0-156.488-0.589-211.098-3.081-54.496-2.486-91.716-11.142-124.283-23.799-33.669-13.082-62.222-30.589-90.687-59.053-28.464-28.466-45.971-57.019-59.053-90.687-12.658-32.567-21.314-69.786-23.799-124.283-2.492-54.61-3.081-72.046-3.081-211.098 0-139.050 0.589-156.486 3.081-211.096 2.486-54.496 11.142-91.716 23.799-124.283 13.082-33.669 30.589-62.222 59.053-90.687 28.466-28.464 57.019-45.971 90.687-59.055 32.567-12.656 69.786-21.312 124.283-23.797 54.61-2.492 72.046-3.081 211.098-3.081 139.050 0 156.486 0.589 211.096 3.081 54.496 2.486 91.716 11.142 124.283 23.797 33.669 13.085 62.222 30.591 90.687 59.055 28.464 28.466 45.971 57.019 59.055 90.687 12.656 32.567 21.312 69.786 23.797 124.283 2.492 54.61 3.081 72.046 3.081 211.096 0 139.052-0.589 156.488-3.081 211.098-2.486 54.496-11.142 91.716-23.797 124.283-13.085 33.669-30.591 62.222-59.055 90.687-28.466 28.464-57.019 45.971-90.687 59.053-32.567 12.658-69.786 21.314-124.283 23.799-54.61 2.492-72.046 3.081-211.096 3.081zM512.001 867.748c136.709 0 152.903-0.522 206.891-2.986 49.919-2.276 77.030-10.617 95.071-17.629 23.899-9.288 40.955-20.383 58.87-38.3 17.918-17.915 29.012-34.971 38.3-58.87 7.012-18.041 15.353-45.152 17.629-95.071 2.463-53.988 2.986-70.182 2.986-206.893 0-136.709-0.522-152.903-2.986-206.891-2.276-49.919-10.617-77.030-17.629-95.071-9.288-23.899-20.383-40.955-38.3-58.87-17.915-17.918-34.971-29.012-58.87-38.3-18.041-7.012-45.152-15.353-95.071-17.629-53.98-2.463-70.172-2.986-206.891-2.986-136.721 0-152.911 0.522-206.893 2.986-49.919 2.276-77.030 10.617-95.071 17.629-23.899 9.288-40.955 20.383-58.87 38.3-17.915 17.915-29.012 34.971-38.3 58.87-7.012 18.041-15.353 45.152-17.629 95.071-2.463 53.988-2.986 70.182-2.986 206.891 0 136.711 0.522 152.905 2.986 206.893 2.276 49.919 10.617 77.030 17.629 95.071 9.288 23.899 20.383 40.955 38.3 58.87 17.915 17.918 34.971 29.012 58.87 38.3 18.041 7.012 45.152 15.353 95.071 17.629 53.988 2.463 70.182 2.986 206.893 2.986zM512.001 710.919c-145.208 0-262.92-117.712-262.92-262.92 0-145.206 117.712-262.918 262.92-262.918 145.206 0 262.918 117.712 262.918 262.918 0 145.208-117.712 262.92-262.918 262.92zM512.001 277.333c-94.258 0-170.668 76.41-170.668 170.666 0 94.258 76.41 170.668 170.668 170.668 94.256 0 170.666-76.41 170.666-170.668 0-94.256-76.41-170.666-170.666-170.666zM846.747 721.306c0-33.933-27.508-61.439-61.441-61.439-33.931 0-61.439 27.506-61.439 61.439s27.508 61.441 61.439 61.441c33.933 0 61.441-27.508 61.441-61.441z" />
<glyph unicode="&#xe94b;" glyph-name="bs-jquery" d="M65.504 709.344c-90.656-130.176-79.328-299.328-10.176-437.504 1.664-3.488 3.328-6.656 4.992-9.824 0.992-2.176 2.176-4.32 3.328-6.336 0.512-1.152 1.344-2.496 2.016-3.488 1.152-2.336 2.336-4.32 3.488-6.496l6.656-11.328c1.152-2.176 2.496-4.16 3.84-6.176 2.336-4 5.152-8 7.488-12 1.152-1.664 2.176-3.328 3.328-4.992 4.16-6.496 8.672-12.832 13.344-19.008 3.328-4.512 6.656-8.992 10.176-13.504 1.152-1.504 2.496-3.168 3.68-4.832l9.504-11.488c1.152-1.344 2.176-2.848 3.488-4.16 4.16-4.992 8.672-10.016 12.992-14.848 0-0.16 0.16-0.16 0.16-0.32 5.504-6.848 11.488-13.152 18.176-18.848 3.488-3.488 6.848-7.008 10.496-10.336l4.32-4.16c4.672-4.512 9.344-8.832 14.336-13.152 0.16 0 0.16 0 0.32-0.16l2.336-2.016c4.32-3.84 8.832-7.68 13.344-11.168l5.344-4.512c3.488-2.848 7.328-5.664 11.008-8.512l5.824-4.512c4-3.008 8.16-5.824 12.16-8.832 1.504-0.992 3.008-2.176 4.672-3.008l1.152-0.992 12-8 5.152-3.328c6.176-4 12.512-7.84 18.656-11.68 1.824-0.832 3.488-1.824 5.152-2.848 4.672-2.656 9.504-5.344 14.176-7.84 2.496-1.504 5.152-2.656 7.84-4 3.168-1.824 6.496-3.488 9.824-5.344 0.832-0.16 1.664-0.512 2.496-0.992 1.344-0.672 2.656-1.344 4-2.016 5.152-2.496 10.496-4.992 16-7.328 0.992-0.512 2.176-0.832 3.328-1.504 6.176-2.656 12.16-5.344 18.656-7.84 1.344-0.32 2.848-1.152 4.32-1.664 5.824-2.176 11.84-4.32 17.664-6.496l2.016-0.672c6.656-2.336 12.992-4.32 19.68-6.496 1.504-0.32 3.168-0.992 4.672-1.344 6.848-2.176 13.344-4.512 20.16-5.824 437.824-79.84 564.992 263.168 564.992 263.168-106.848-139.168-296.512-175.84-476.16-135.008-6.656 1.504-13.152 3.68-20 5.664-8 2.336-16.16 4.992-24.16 7.68l-2.656 0.992c-5.664 2.016-11.328 4.16-16.992 6.336-1.504 0.672-3.168 1.152-4.672 1.824-6.336 2.496-12.32 4.992-18.496 7.68-1.344 0.512-2.336 1.152-3.68 1.664-5.152 2.336-10.336 4.672-15.488 7.168-1.504 0.672-3.008 1.504-4.512 2.336-4 1.824-8 4-12 6.016-2.656 1.344-5.344 2.656-7.84 4-4.832 2.656-9.664 5.344-14.496 8-1.504 0.992-3.168 2.016-4.832 2.848-6.336 3.84-12.512 7.68-18.656 11.488-1.664 0.992-3.328 2.176-4.992 3.328-4.512 2.848-8.992 5.824-13.344 8.832-1.504 0.992-2.848 2.016-4.32 3.168-4.32 2.848-8.512 5.824-12.672 8.992-1.824 1.504-3.68 2.848-5.664 4.32-3.68 2.848-7.488 5.664-11.168 8.832l-5.152 4c-4.832 3.84-9.504 7.84-14.176 12-0.512 0.512-0.992 0.832-1.664 1.344l-14.656 13.344-4.32 4c-3.488 3.68-7.008 7.008-10.656 10.496l-4.16 4.32c-4.512 4.512-8.832 8.992-13.152 13.824l-0.672 0.672c-4.512 4.832-8.832 10.016-13.344 15.008-1.152 1.344-2.176 2.848-3.328 4.16l-9.664 11.84c-4.992 6.336-9.824 12.672-14.496 19.168-99.68 136-135.68 323.68-56 477.664zM346.496 819.008c-65.664-94.336-62.016-220.32-10.848-320 8.512-16.672 18.176-32.832 28.832-48.32 9.824-14.016 20.672-30.656 33.824-42.016 4.512-5.152 9.504-10.176 14.656-15.328l3.84-3.84c4.832-4.672 9.824-9.344 15.008-13.824l0.672-0.672c5.664-4.992 11.488-9.824 17.664-14.496 1.344-0.992 2.656-2.176 4-3.168 6.016-4.512 12-8.992 18.176-13.344l0.672-0.512c2.656-1.824 5.504-3.68 8.512-5.504 1.152-0.832 2.496-1.824 3.84-2.496 4.512-3.008 8.992-5.664 13.504-8.512 0.832-0.32 1.344-0.672 2.016-0.992 3.84-2.336 8.16-4.512 12.16-6.656 1.344-0.832 2.656-1.504 4.16-2.336 2.848-1.344 5.664-2.848 8.32-4.32l1.504-0.512c5.664-2.848 11.488-5.504 17.344-8.16 1.504-0.512 2.656-0.992 4-1.664 4.672-2.016 9.504-4 14.176-5.824 2.176-0.672 4.16-1.504 6.176-2.176 4.32-1.664 8.992-3.168 13.344-4.672l5.824-1.824c6.336-2.016 12.672-4.512 19.168-5.504 338.016-56 416.16 204.16 416.16 204.16-70.496-101.344-206.656-149.664-352-112-6.496 1.664-12.832 3.68-19.168 5.664-2.016 0.512-3.84 1.152-5.824 1.664-4.32 1.664-8.992 3.168-13.152 4.672l-6.176 2.336c-4.832 2.016-9.664 3.68-14.336 5.824-1.504 0.672-2.848 0.992-3.84 1.664-6.016 2.656-12 5.344-17.824 8.16l-8.832 4.672-4.992 2.496c-4 2.016-7.68 4.16-11.328 6.336-0.992 0.512-1.824 0.992-2.656 1.504-4.512 2.848-9.152 5.504-13.504 8.512-1.504 0.832-2.848 1.664-4.16 2.656l-8.832 5.664c-6.176 4.32-12.16 8.992-18.336 13.344-1.344 1.344-2.656 2.336-4 3.328-63.84 50.336-114.176 119.008-138.176 196.672-25.152 80.832-19.488 171.488 23.84 244.992zM582.848 900.992c-38.656-56.832-42.496-127.488-15.84-190.176 28.32-66.496 86.336-118.848 153.824-143.488 2.848-1.152 5.504-2.016 8.32-3.008l3.68-1.152c4-1.152 8-2.656 12-3.68 186.656-36 237.152 96 250.848 115.328-44.512-63.84-119.008-79.168-210.496-56.992-7.328 2.016-14.656 4.16-22.016 6.848-8.832 3.168-17.664 6.848-26.336 10.848-16.16 8-31.68 17.344-46.016 28.16-82.016 62.176-132.672 180.512-79.168 276.992z" />
<glyph unicode="&#xe94c;" glyph-name="bs-js" d="M64 896v-896h896v896zM551.616 197.216c0-87.2-51.2-127.008-125.792-127.008-67.392 0-106.4 34.784-126.4 76.992l68.608 41.408c13.216-23.392 25.216-43.2 54.208-43.2 27.584 0 45.184 10.816 45.184 52.992v286.208h84.192zM750.784 70.208c-78.208 0-128.8 37.184-153.408 86.016l68.608 39.584c18.016-29.408 41.6-51.2 83.008-51.2 34.784 0 57.216 17.408 57.216 41.6 0 28.8-22.816 39.008-61.408 56l-20.992 8.992c-60.8 25.792-100.992 58.4-100.992 127.008 0 63.2 48.192 111.2 123.2 111.2 53.6 0 92-18.592 119.616-67.392l-65.6-42.016c-14.4 25.792-30.016 36-54.208 36-24.576 0-40.192-15.616-40.192-36 0-25.216 15.616-35.392 51.808-51.2l20.992-8.992c71.616-30.592 111.808-62.016 111.808-132.384 0-75.616-59.616-117.184-139.424-117.184z" />
<glyph unicode="&#xe94d;" glyph-name="bs-js-2" d="M286.258 191.989l-118.829-69.417-70.715 70.715 64.245 120.026c-12.572 22.078-22.303 45.421-29.144 69.475l-130.37 35.413v100.18l129.673 38.089c6.657 24.174 16.179 47.669 28.602 69.895l-65.952 117.912 70.715 70.715 118.857-66.765c22.673 12.479 45.927 21.834 69.383 28.285l36.675 133.748h100.18l37.739-136.552c22.053-6.75 43.299-15.853 63.357-27.079l124.8 71.308 70.715-70.715-70.95-125.987c18.203-33.458 30.6-70.922 35.473-111.439h-125.15c-25.192 124.756-169.254 195.602-286.060 128.262-128.466-74.062-128.466-260.223 0-334.286 51.996-29.976 87.392-34.811 133.254-15.211v-95.959l-89.769-53.564c0 0-73.164 40.285-96.729 52.948zM552.733 89.965c-32.187-10.879-57.097-4.351-82.989 42.353l-73.514-45.035c29.795-74.51 135.483-106.808 212.751-64.055 51.86 34.323 59.826 69.602 58.695 179.268v249.176h-90.78v-285.658c1.030-33.844-0.361-68.005-24.164-76.050zM966.654 26.884c43.271 24.388 68.179 71.628 55.472 132.43-20.471 114.59-175.089 114.59-193.423 161.422-20.133 67.605 72.935 78.293 98.75 18.101l70.765 45.406c-50.646 97.349-188.341 87.713-234.319 28.51-45.746-51.923-32.711-142.797 22.981-180.203 54.858-41.174 135.445-50.533 145.731-89.051 10.008-47.136-34.657-62.364-79.043-56.958-32.711 6.795-50.904 23.413-70.58 53.653l-73.422-42.348c49.51-98.818 182.549-112.973 257.087-70.962z" />
<glyph unicode="&#xe94e;" glyph-name="bs-key" d="M701.629 960c-178.251 0-322.369-144.119-322.369-322.369 0-37.926 7.585-75.852 18.962-113.778l-398.221-398.223v-189.63h189.63v113.778h113.778v113.778h113.778l170.666 170.666c34.134-11.377 72.060-18.962 113.778-18.962 178.253 0 322.369 144.119 322.369 322.369s-144.117 322.371-322.369 322.371zM796.444 618.667c-64.475 0-113.778 49.303-113.778 113.778s49.303 113.778 113.778 113.778 113.778-49.303 113.778-113.778-49.303-113.778-113.778-113.778z" />
<glyph unicode="&#xe94f;" glyph-name="bs-linkedin" d="M347-57.4c0 4.8 0 9.4 0 14 0 215.4 0 430.6 0 646 0 6-0.4 10.8 8.4 10.8 63.6-0.4 127.4-0.2 191-0.2 1.6 0 3.2-0.4 5.8-0.8 0-28 0-55.6 0-83.4 0.8-0.2 1.4-0.6 2.2-0.8 8 10.4 15.6 21.2 24 31.4 24.4 30 55 52 91 65.2 19.6 7.2 41 11.6 61.6 12.6 28.4 1.2 57.4 0.8 85.4-4 46-7.8 86.6-28.2 120.2-61.6 31.8-31.4 52.8-69.2 64.2-111.8 6-22.6 9.8-45.8 13.4-68.8 2.4-16 3.6-32.4 3.6-48.4 0.2-130 0.2-260 0.2-390 0-3.2-0.2-6.4-0.4-10.6-3.8 0-7 0-10.2 0-61.4 0-122.6 0.2-184-0.2-10.2 0-12 3.4-12 12.6 0.2 119.6 0.6 239.4-0.2 359-0.2 21-2.2 42.8-7.6 63-9.8 35.4-32.2 61-67.8 74-30 11-60.4 13-91.2 5.2-34-8.6-57.4-31.2-75-61-13.6-23-16.2-48.4-16.4-73.8-0.8-121.4-0.4-242.6-0.4-364 0-4.6 0-9.2 0-14.2-69-0.2-136.8-0.2-205.8-0.2zM218.2 274.8c0-106.6-0.2-213.2 0.2-319.8 0-9.6-2-13.2-12.6-13-61 0.6-122 0.6-183 0-10 0-12.2 3.4-12.2 12.6 0.2 214.2 0.2 428.6 0 642.8 0 8.6 2.4 11.6 11.2 11.6 61.6-0.4 123.2-0.4 185 0 9.6 0 11.4-3.6 11.4-12.2 0-107.4 0-214.8 0-322zM112.2 950.4c65.8 1.6 105.2-46.2 105.4-104.8 0.2-60-41.8-104.8-107.8-104.6-61.4 0-104.8 44-104.6 106.2 0.2 58.2 42.4 105.2 107 103.2z" />
<glyph unicode="&#xe950;" glyph-name="bs-linkedin-2" d="M967.665 903.672c-37.54 37.55-82.77 56.328-135.654 56.328h-640.005c-52.884 0-98.114-18.778-135.671-56.328-37.55-37.557-56.328-82.784-56.328-135.671v-639.998c0-52.882 18.778-98.114 56.328-135.671 37.557-37.557 82.787-56.335 135.671-56.335h639.998c52.884 0 98.114 18.778 135.654 56.335 37.557 37.557 56.335 82.787 56.335 135.671v639.998c-0.002 52.886-18.781 98.121-56.328 135.671zM312.004 102.673h-154.001v462.668h154.001v-462.668zM298.012 650.999c-15.997-15.334-37.111-23.002-63.336-23.002h-0.672c-25.331 0-45.879 7.668-61.661 23.002-15.785 15.334-23.673 34.332-23.673 56.998 0 23.11 8.117 42.225 24.333 57.339 16.229 15.11 37.225 22.669 62.999 22.669 25.777 0 46.444-7.559 62.002-22.669 15.554-15.115 23.556-34.229 23.997-57.339-0.002-22.657-7.993-41.655-23.99-56.998zM866.004 102.673h-154.001v247.328c0 69.769-25.77 104.664-77.327 104.664-19.554 0-36.006-5.443-49.335-16.334-13.345-10.884-23.341-24.107-29.998-39.675-3.117-7.991-4.668-20.432-4.668-37.316v-258.664h-154.001c1.333 279.105 1.333 433.335 0 462.67h154.001v-65.32c32.38 50.626 78.359 75.992 138.003 75.992 53.332 0 96.227-17.56 128.67-52.665 32.445-35.112 48.665-86.896 48.665-155.325v-265.354h-0.009z" />
<glyph unicode="&#xe951;" glyph-name="bs-linux" d="M853.982 247.398c22.050-9.455 31.198-27.853 35.294-49.084 4.403-22.665 11.162-43.861 28.297-60.45 2.287-2.185 3.925-5.12 5.7-7.851 21.094-32.051 16.282-54.682-16.725-73.796-14.78-8.602-30.413-15.735-45.67-23.415-23.006-11.537-43.179-26.317-60.245-46.012-21.709-24.917-48.23-42.871-81.647-49.118-39.97-7.475-75.093 10.001-92.16 47.343-3.652 7.987-7.782 10.411-16.384 10.854-21.197 1.263-42.394 3.413-63.42 6.519-37.035 5.461-72.602-3.652-108.681-8.943-14.268-2.082-24.201-6.793-33.655-18.944-18.637-23.927-46.831-30.071-75.23-26.317-23.040 3.072-46.694 8.875-67.584 18.739-30.447 14.268-61.952 20.855-94.72 24.405-12.39 1.331-24.849 3.004-37.001 5.598-32.87 7.134-48.469 28.467-39.731 60.723 7.202 26.59 8.192 51.917 4.779 79.053-4.881 38.741 6.861 56.934 45.329 67.857 30.788 8.738 42.496 35.396 61.338 55.535 1.468 1.604 1.195 5.325 0.956 7.987-5.359 52.599 10.342 100.591 32.393 147.012 24.166 50.859 56.559 96.427 91.682 140.22 38.195 47.616 53.658 102.4 49.766 163.055-2.901 45.67-6.793 91.409 4.198 136.738 14.336 59.392 55.159 97.075 115.849 102.81 25.907 2.458 53.111 3.55 78.336-1.536 58.948-11.81 86.869-55.057 100.045-110.012 10.342-43.145 11.674-87.142 9.762-131.072-1.877-42.394 7.885-80.725 33.417-114.654 18.364-24.405 38.502-47.479 55.706-72.67 21.572-31.676 43.486-63.488 60.587-97.621 28.467-56.764 39.322-113.425 19.422-182.955zM386.731 119.194c14.848-24.986 31.812-45.193 59.938-54.852 62.703-21.606 119.808-8.533 173.943 25.259 6.042 3.721 12.288 11.332 13.517 17.988 5.734 32.188 9.796 64.717 14.404 97.212 4.301 30.481 10.513 59.87 41.745 75.742 2.697 1.399 4.028 6.349 5.086 9.865 5.734 18.739 14.95 27.75 33.826 24.815 37.683-5.871 75.093-14.268 87.962-60.211 7.714 12.8 3.823 23.791-4.233 32.017-9.148 9.387-19.797 18.398-31.505 23.927-14.882 6.929-20.173 13.722-18.807 32.119 4.676 62.874-24.61 112.879-66.594 156.774-0.887 0.922-2.526 1.195-3.823 1.741 42.667-50.483 70.895-104.175 50.961-172.51-22.391 1.673-22.699 1.604-24.713 11.401-8.397 40.789-25.020 78.336-43.315 115.473-15.189 31.027-28.672 63.044-41.335 95.164-11.093 28.126-20.002 57.276-29.628 85.197-10.513-6.929-20.378-14.268-30.993-20.343-13.449-7.68-27.682-13.858-41.131-21.538-34.031-19.319-61.679-16.725-91.443 8.875-8.158 7.066-17.203 13.073-27.716 20.924-5.086-53.862-23.211-100.318-43.486-146.159-9.182-20.719-18.5-41.335-28.092-61.815-18.159-38.81-27.887-79.735-31.642-125.338-16.35 23.654-20.89 47.002-19.285 71.851 2.048 32.119 13.687 61.201 28.535 89.259 5.632 10.684 10.615 21.606 15.94 32.495-1.024 0.478-2.082 0.922-3.106 1.399-23.518-37.137-44.783-75.469-53.316-119.194-11.127-56.934 7.782-94.413 57.31-123.802 31.095-18.398 59.494-40.926 76.22-74.411 13.483-26.795 4.779-43.452-25.225-49.323zM321.263-20.070c28.774 2.15 49.391 6.007 61.201 27.068 11.81 20.992 7.885 41.404-4.779 60.518-7.987 12.117-17.306 23.415-25.361 35.533-15.087 22.801-29.867 45.875-44.442 68.983-10.513 16.725-19.081 34.816-30.959 50.415-17.647 23.211-48.162 33.792-71.407-2.458-12.629-19.729-29.355-32.188-51.883-39.014-23.415-7.066-29.798-20.924-27.853-45.602 1.434-18.671 4.233-38.537-0.273-56.149-10.411-40.721-3.482-53.726 38.263-57.993 37.888-3.925 74.854-9.933 109.636-27.785 16.452-8.397 36.181-10.377 47.855-13.517zM706.219 244.599c-5.564-7.066-12.629-13.073-15.667-20.719-4.813-11.878-8.738-24.815-9.762-37.478-3.277-39.458-7.1-78.609-20.48-116.19-2.731-7.68-4.301-15.735-5.769-23.723-4.574-24.542-2.15-47.411 18.739-64.41 20.582-16.862 44.169-17.408 66.662-6.519 16.521 7.919 33.246 18.33 45.568 31.676 21.845 23.654 47.241 40.789 75.947 54.204 11.025 5.12 21.914 10.923 31.949 17.749 11.571 7.851 13.824 17.135 7.68 29.798-4.062 8.26-9.079 16.521-15.292 23.347-10.854 11.947-16.486 25.873-19.831 41.199-2.116 9.523-4.335 19.217-8.329 27.989-9.489 21.197-36.898 25.873-55.569 12.254-11.878-8.67-25.702-15.667-39.663-20.343-17.749-6.007-33.382 0.99-42.564 17.271-5.495 9.694-8.499 20.753-13.619 33.894zM491.793 602.317c5.291 1.399 14.711 2.321 22.767 6.212 20.89 9.796 41.233 20.787 61.645 31.607 3.823 2.014 7.305 4.813 10.581 7.68 21.914 19.524 18.398 41.199-8.329 53.009-19.149 8.397-38.195 16.93-57.139 25.805-24.917 11.537-49.015 12.186-71.646-5.12-14.575-11.127-28.809-22.733-43.008-34.338-8.499-6.861-10.513-15.599-6.178-25.805 6.861-16.077 61.884-56.252 79.667-58.061 2.56-0.341 5.154-0.478 11.639-0.99zM565.419 717.312c5.052-2.185 9.011-3.55 12.493-5.598 11.503-6.861 19.251-2.253 21.367 9.148 3.106 16.998 7.27 34.748 5.052 51.473-3.652 27.921-24.542 46.933-46.353 48.060-26.214 1.263-48.026-20.412-52.77-52.258-3.652-24.474-3.004-25.395 20.855-30.993 2.56 10.206 3.55 21.197 8.294 30.208 3.072 5.871 11.708 12.39 17.647 12.186 5.939-0.137 13.961-7.202 16.998-13.278 7.987-15.906 5.291-32.29-3.584-48.947zM725.436 261.666c0.819-13.653 3.721-28.672 18.569-35.669 14.097-6.724 26.761 0.785 38.229 9.148 2.833 2.082 5.461 4.608 7.748 7.27 8.158 9.387 8.055 20.617-2.185 27.682-9.523 6.588-20.309 12.186-31.3 15.872-20.787 6.895-31.198-1.365-31.061-24.303zM449.161 733.116c6.827 5.393 17.442 9.66 18.057 15.121 2.321 20.275-2.935 39.595-18.671 54.204-13.756 12.732-30.174 10.786-42.086-4.13-19.149-23.859-16.043-69.871 6.69-92.262 3.857 2.867 7.817 5.803 12.083 9.011-11.264 12.39-13.517 26.59-10.172 40.926 1.434 6.076 8.26 10.786 12.629 16.145 4.949-4.198 11.571-7.543 14.37-12.868 3.721-7.1 4.471-15.701 7.1-26.146zM436.531 594.91c2.833-2.389 5.7-4.676 8.431-7.202 26.897-24.917 47.957-27.853 80.384-10.718 9.353 4.949 18.33 10.684 27.682 15.735 3.447 1.809 7.441 2.662 11.708 2.389-26.658-13.995-49.562-37.547-83.388-32.87-20.207 2.799-34.065 15.735-47.275 29.389 0.819 1.058 1.638 2.15 2.458 3.277z" />
<glyph unicode="&#xe952;" glyph-name="bs-lock" d="M767.998 511.996v192.002c0 141.124-114.805 256.002-255.998 256.002-141.153 0-255.998-114.878-255.998-256.002v-192.002c-70.695 0-128.003-57.315-128.003-127.993v-320.001c0-70.699 57.308-128.003 128.003-128.003h511.996c70.68 0 128.003 57.304 128.003 128.003v320.001c0.002 70.68-57.323 127.993-128.003 127.993zM544.002 201.818v-105.814c0-17.69-14.311-32-32-32s-32.002 14.311-32.002 32v105.814c-18.783 11.12-31.996 30.749-31.996 54.181 0 35.381 28.657 64.003 63.996 64.003s64.001-28.621 64.001-64.003c0.002-23.432-13.226-43.063-31.998-54.181zM639.995 511.996h-255.994v192.002c0 70.625 57.403 128.003 127.999 128.003 70.562 0 127.993-57.378 127.993-128.003v-192.002z" />
<glyph unicode="&#xe953;" glyph-name="bs-lock-open" d="M938.665 554.686h-426.665v127.98c0 141.397-114.624 256.001-256.001 256.001-141.391 0-255.999-114.602-255.999-256.001v-170.664c0-23.555 19.118-42.667 42.667-42.667 23.555 0 42.667 19.112 42.667 42.667v170.664c0 94.27 76.394 170.667 170.664 170.667 94.248 0 170.669-76.394 170.669-170.667v-127.98c-47.127 0-85.335-38.208-85.335-85.329v-426.69c0-47.132 38.211-85.335 85.335-85.335h511.995c47.132 0 85.335 38.205 85.335 85.335v426.69c0.003 47.121-38.2 85.329-85.332 85.329zM938.665 42.67h-511.995v426.665h511.995v-426.665zM640.005 225.168v-54.497c0-23.544 19.123-42.646 42.667-42.646 23.531 0 42.667 19.101 42.667 42.646v54.497c25.373 14.786 42.665 42.002 42.665 73.497 0 47.143-38.213 85.356-85.332 85.356-47.135 0-85.335-38.213-85.335-85.356 0-31.496 17.291-58.711 42.667-73.497z" />
<glyph unicode="&#xe954;" glyph-name="bs-mac" d="M564.338 882.631c37.547 43.236 98.987 75.093 150.187 77.369 6.827-60.302-17.067-120.604-53.476-163.84-35.271-43.236-94.436-77.369-151.324-72.818-6.827 59.164 21.618 120.604 54.613 159.289zM856.747 63.431c-42.098-62.578-86.471-124.018-155.876-126.293-68.267-1.138-89.884 40.96-168.391 40.96s-102.4-39.822-167.253-42.098c-67.129-2.276-118.329 67.129-161.564 129.707-87.609 127.431-154.738 359.538-63.716 515.413 44.373 77.369 124.018 127.431 210.489 128.569 65.991 1.138 128.569-44.373 168.391-44.373s116.053 54.613 195.698 46.649c32.996-1.138 126.293-13.653 186.596-101.262-4.551-3.413-111.502-64.853-110.364-194.56 1.138-154.738 135.396-207.076 136.533-207.076-1.138-3.413-21.618-73.956-70.542-145.636z" />
<glyph unicode="&#xe955;" glyph-name="bs-man" d="M691.072 426.155c71.808 54.229 118.485 140.075 118.485 236.843 0 163.755-133.205 297.003-296.96 297.003s-296.96-133.248-296.96-297.003c0-96.768 46.763-182.571 118.571-236.843-102.101-53.675-178.048-159.616-178.048-259.968v-230.187h711.68v230.187c0 100.693-75.051 206.635-176.768 259.968zM257.621 662.997c0 12.672 1.152 25.088 2.944 37.291 19.627 33.749 38.443 62.933 55.723 87.339 30.293 42.24 56.192 71.211 75.264 90.197 21.248 21.035 27.349 22.997 27.349 22.997s10.923-4.395 13.013-6.571c16-18.219 79.232-67.157 150.187-117.803 65.92-47.104 138.027-95.403 185.131-122.069-4.608-136.619-116.907-246.4-254.592-246.4-140.629 0-255.019 114.389-255.019 255.019zM661.461 250.795l67.712-66.517-209.963-228.053c-0.128-0.213-0.256-0.299-0.427-0.512-1.195-1.536-2.347-2.944-3.2-4.053-1.536-2.347-2.475-3.669-2.475-3.669-0.085 0.128-0.128 0.256-0.213 0.384-0.085-0.085-0.299-0.384-0.299-0.384l-0.512 0.512-0.469-0.512 0.256 0.811-7.936 8.576-208.896 226.901 68.565 67.371 12.373 14.805-19.2 6.4-108.587 31.787 95.659 114.219c41.216-28.587 89.899-46.933 142.592-51.541l-11.563-12.245-18.005-21.76 42.453-49.408c0 0-27.136-31.531-40.405-164.011l52.736-169.259c0.171-0.256 0.299-0.555 0.427-0.853l53.931 172.885c-13.696 131.456-42.453 161.195-42.453 161.195l41.6 48.384-32.683 34.688c54.784 3.712 105.6 22.059 148.309 51.541l1.92-2.688 93.269-111.189-106.837-31.275-20.907-6.912 13.227-15.616z" />
<glyph unicode="&#xe956;" glyph-name="bs-man-add" d="M411.477 367.744c0 0-14.336-36.821-14.251-36.992l22.784-32.341h50.261l22.784 32.341c-0.171 0.597-14.251 36.992-14.251 36.992-1.664-0.256-65.664-0.256-67.328 0zM282.069 582.656c29.312-85.76 84.523-150.955 163.115-150.955 75.691 0 131.712 64.256 162.005 149.888 61.141 61.653 46.72 107.733 32.64 129.749 33.152 158.976-68.352 248.661-200.448 248.661-236.757 0-195.456-259.413-195.456-259.413 0.256-0.043 0.555-0.043 0.811-0.085-10.837-24.405-14.037-65.451 37.333-117.845zM380.928 775.253l-17.28-64.384c84.523 25.771 95.872 39.936 109.184 49.621 13.824 10.027 25.557 20.224 34.987 29.483 4.352-7.851 9.856-15.019 16.171-21.504 6.229-6.571 15.488 59.605 15.488 59.605s23.381-40.192 26.624-53.205c2.304-9.216 17.024-46.507 25.003-49.92-2.944-123.093-58.197-251.733-145.92-251.733-81.707 0-135.211 111.573-144.597 226.347 22.4 1.365 80.341 75.691 80.341 75.691zM737.792 200.277v130.901h-129.92v123.349l-20.011 7.381-15.744-38.4 33.237-12.245-121.216-400-15.275 268.587h-47.275l-15.104-263.68-119.893 395.648 31.872 11.648-15.915 38.357-119.168-43.947c-1.493-0.725-113.621-54.059-162.731-183.253-9.984-26.24-17.365-55.723-20.651-88.533 105.6-128.171 265.643-210.005 444.8-210.091h0.811c9.685 0 19.285 0.256 28.843 0.768h0.64c167.125 8.576 315.477 88.235 415.275 209.408-1.963 19.285-5.632 37.12-10.112 54.144h-142.464zM712.832 99.797c-49.195-19.755-99.84-23.253-128.981-23.253-9.813 0-17.152 0.469-21.291 0.725v24.747c1.323-0.085 85.077-9.899 150.272 23.68v-25.899zM892.032 485.547v127.147h-111.573v-127.147h-129.92v-111.659h129.92v-130.901h111.573v130.901h128.256v111.659h-128.256z" />
<glyph unicode="&#xe957;" glyph-name="bs-man-info" d="M853.419 596.096c-92.587 0-167.68-75.051-167.68-167.637s75.093-167.637 167.68-167.637 167.595 75.051 167.595 167.637-75.008 167.637-167.595 167.637zM853.419 297.813c-72.149 0-130.688 58.453-130.688 130.645s58.496 130.645 130.688 130.645 130.603-58.453 130.603-130.645-58.453-130.645-130.603-130.645zM530.432 427.947c69.589 54.528 114.517 139.179 114.517 234.24 0 164.224-133.589 297.813-297.685 297.813-164.181 0-297.813-133.589-297.813-297.771 0-95.573 45.397-180.523 115.669-235.051-97.664-53.333-165.248-159.616-165.248-260.608v-230.571h697.301v230.485c0 101.547-68.352 208.384-166.741 261.461zM534.485 668.629c-5.589-65.579-138.581-65.579-144.171 0-5.461 64 138.581 66.048 144.171 0zM158.251 781.312c29.653 41.387 54.997 69.76 73.685 88.32 20.821 20.608 26.795 22.528 26.795 22.528s10.752-4.309 12.672-6.443c15.744-17.877 77.696-65.792 147.115-115.328 12.757-9.088 25.771-18.176 38.656-27.221-41.899-1.664-82.176-23.168-91.264-64.427-10.24 0-20.437 0-30.763 0-23.083 79.957-168.491 79.829-191.147-0.427-16.512-0.043-32.896-0.043-49.493-0.043-0.341 0-0.597-0.213-0.896-0.213 22.869 40.875 44.715 75.136 64.64 103.253zM311.851 663.936c-5.76-65.579-138.581-65.579-144.341 0-5.504 63.957 138.581 65.963 144.341 0zM92.587 652.245c0.768-0.128 1.237-0.427 1.92-0.427 15.829 0.043 31.659 0.043 47.488 0.043 6.016-41.984 61.824-61.227 97.579-62.848 42.069-1.877 85.845 22.315 96.256 63.232 9.771 0 19.499 0 29.355 0 9.003-39.083 62.677-56.96 97.237-58.496 40.747-1.835 83.243 20.693 95.232 59.264 12.757 0 25.515 0 38.187 0 2.005-1.109 3.925-2.261 5.845-3.285-6.571-134.869-118.101-242.688-254.507-242.688-137.259 0.043-249.259 109.184-254.592 245.205zM347.093-53.931l-0.341 0.555-0.512-0.555 0.256 0.853-217.173 235.819 83.755 82.304-130.688 38.229 95.573 114.176c40.917-28.373 89.259-46.763 141.397-51.584l-27.904-33.835 42.496-49.493c0 0-33.664-38.571-44.416-212.437-2.517-39.979 25.515-56.405 57.899-123.563l-0.341-0.469zM486.229 259.2l77.824-76.459-202.283-219.861-12.16-14.037c8.747 12.928 57.6 86.784 55.253 123.264-10.752 173.824-46.507 210.475-46.507 210.475l42.496 49.493-27.989 33.707c52.736 4.48 101.589 22.741 142.933 51.243l95.232-113.664-121.429-35.584-8.32-2.688 4.949-5.888zM876.843 469.589h-47.147v-0.085h-17.493v-27.392h17.493v-97.835h-18.603v-26.155h18.603v-0.213h47.147v0.213h15.403v26.155h-15.403v125.312zM852.907 488.192c15.829 0 25.429 10.539 25.429 23.552-0.341 13.355-9.6 23.552-24.747 23.552s-25.173-10.197-25.173-23.552c0-13.013 9.6-23.552 24.491-23.552z" />
</font>
</defs>
</svg>
